<svg xmlns="http://www.w3.org/2000/svg" xmlns:xlink="http://www.w3.org/1999/xlink" width="500" zoomAndPan="magnify" viewBox="0 0 375 149.999998" height="200" preserveAspectRatio="xMidYMid meet" version="1.0"><defs><g/><clipPath id="28f86e24aa"><path d="M 31 20 L 150 20 L 150 137.894531 L 31 137.894531 Z M 31 20 " clip-rule="nonzero"/></clipPath></defs><path fill="#ffffff" d="M 128.0625 119.542969 C 128.0625 119.835938 128.003906 120.121094 127.894531 120.390625 C 127.78125 120.664062 127.617188 120.90625 127.410156 121.113281 C 127.203125 121.324219 126.960938 121.484375 126.6875 121.597656 C 126.417969 121.710938 126.132812 121.765625 125.835938 121.765625 C 125.542969 121.765625 125.257812 121.710938 124.984375 121.597656 C 124.714844 121.484375 124.472656 121.324219 124.265625 121.113281 C 124.054688 120.90625 123.894531 120.664062 123.78125 120.390625 C 123.667969 120.121094 123.613281 119.835938 123.613281 119.542969 C 123.613281 119.246094 123.667969 118.960938 123.78125 118.691406 C 123.894531 118.417969 124.054688 118.175781 124.265625 117.96875 C 124.472656 117.757812 124.714844 117.597656 124.984375 117.484375 C 125.257812 117.371094 125.542969 117.316406 125.835938 117.316406 C 126.132812 117.316406 126.417969 117.371094 126.6875 117.484375 C 126.960938 117.597656 127.203125 117.757812 127.410156 117.96875 C 127.617188 118.175781 127.78125 118.417969 127.894531 118.691406 C 128.003906 118.960938 128.0625 119.246094 128.0625 119.542969 Z M 128.0625 119.542969 " fill-opacity="1" fill-rule="nonzero"/><path fill="#ffffff" d="M 147.585938 79.230469 C 147.585938 110.789062 122.003906 136.371094 90.449219 136.371094 C 58.890625 136.371094 33.308594 110.789062 33.308594 79.230469 C 33.308594 47.675781 58.890625 22.09375 90.449219 22.09375 C 122 22.101562 147.578125 47.679688 147.585938 79.230469 Z M 147.585938 79.230469 " fill-opacity="1" fill-rule="nonzero"/><path fill="#6c63ff" d="M 116.855469 89.007812 C 116.234375 125.550781 61.875 125.546875 61.257812 89.007812 C 61.882812 52.464844 116.238281 52.46875 116.855469 89.007812 Z M 116.855469 89.007812 " fill-opacity="1" fill-rule="nonzero"/><path fill="#2f2e41" d="M 87.953125 100.351562 L 87.925781 99.3125 C 95.085938 100.269531 96.628906 91.394531 89.40625 94.710938 L 91.054688 82.664062 L 92.082031 82.804688 L 90.679688 93.054688 C 98.285156 91.921875 95.472656 101.390625 87.953125 100.351562 Z M 87.953125 100.351562 " fill-opacity="1" fill-rule="nonzero"/><path fill="#2f2e41" d="M 97.171875 83.6875 L 102.765625 83.6875 L 102.765625 84.726562 L 97.171875 84.726562 Z M 97.171875 83.6875 " fill-opacity="1" fill-rule="nonzero"/><path fill="#2f2e41" d="M 79.511719 83.6875 L 85.105469 83.6875 L 85.105469 84.726562 L 79.511719 84.726562 Z M 79.511719 83.6875 " fill-opacity="1" fill-rule="nonzero"/><path fill="#2f2e41" d="M 98.070312 127.878906 C 99.160156 120.515625 90.542969 121.972656 85.980469 121.898438 C 84.492188 121.902344 83.085938 122.578125 82.148438 123.738281 C 81.214844 124.898438 80.851562 126.414062 81.160156 127.871094 C 77.632812 128.964844 74.363281 130.765625 71.554688 133.171875 C 83.378906 137.292969 96.230469 137.4375 108.140625 133.574219 C 105.238281 130.96875 101.800781 129.023438 98.070312 127.878906 Z M 98.070312 127.878906 " fill-opacity="1" fill-rule="nonzero"/><path fill="#2f2e41" d="M 75.980469 75.859375 C 81.132812 72.882812 87.382812 75.167969 92.703125 76.414062 C 102.800781 79.519531 116.960938 75.632812 118.1875 63.605469 C 119.464844 52.417969 104.164062 46.183594 99.273438 57.316406 L 100.695312 57.132812 C 84.835938 33.558594 57.242188 34.453125 57.425781 66.859375 C 57.367188 67.863281 58.921875 67.859375 58.980469 66.859375 C 58.398438 47.761719 71.039062 34.707031 88.90625 46.980469 C 92.992188 49.964844 96.300781 53.914062 99.351562 57.917969 C 101.210938 60.003906 101.617188 51.023438 110.523438 53.375 C 120.324219 57.171875 117.125 71.207031 108.363281 74.289062 C 97.539062 79.816406 85.816406 69.09375 75.195312 74.511719 C 74.839844 74.738281 74.726562 75.203125 74.9375 75.566406 C 75.148438 75.929688 75.613281 76.058594 75.980469 75.859375 Z M 75.980469 75.859375 " fill-opacity="1" fill-rule="nonzero"/><g clip-path="url(#28f86e24aa)"><path fill="#3f3d56" d="M 90.449219 137.921875 C 59.847656 137.898438 34.410156 114.347656 32.027344 83.839844 C 29.644531 53.332031 51.121094 26.121094 81.347656 21.347656 C 111.574219 16.570312 140.390625 35.839844 147.527344 65.59375 C 154.667969 95.351562 137.726562 125.59375 108.621094 135.050781 C 102.753906 136.960938 96.621094 137.929688 90.449219 137.921875 Z M 90.449219 23.644531 C 67.964844 23.640625 47.691406 37.183594 39.085938 57.957031 C 30.480469 78.730469 35.234375 102.640625 51.132812 118.539062 C 67.03125 134.441406 90.945312 139.195312 111.71875 130.589844 C 132.488281 121.984375 146.03125 101.710938 146.027344 79.226562 C 145.996094 48.542969 121.128906 23.679688 90.449219 23.644531 Z M 90.449219 23.644531 " fill-opacity="1" fill-rule="nonzero"/></g><g fill="#2f2e41" fill-opacity="1"><g transform="translate(158.850476, 65.142655)"><g><path d="M 17.203125 0 L 10.296875 0 L 0.515625 -28.9375 L 6.59375 -28.9375 L 13.609375 -7.359375 L 14.109375 -7.359375 L 21.03125 -28.9375 L 26.953125 -28.9375 Z M 17.203125 0 "/></g></g></g><g fill="#2f2e41" fill-opacity="1"><g transform="translate(186.318419, 65.142655)"><g><path d="M 5.875 -24.4375 C 4.882812 -24.4375 4.078125 -24.738281 3.453125 -25.34375 C 2.835938 -25.945312 2.53125 -26.722656 2.53125 -27.671875 C 2.53125 -28.609375 2.835938 -29.375 3.453125 -29.96875 C 4.078125 -30.570312 4.882812 -30.875 5.875 -30.875 C 6.539062 -30.875 7.128906 -30.734375 7.640625 -30.453125 C 8.148438 -30.179688 8.546875 -29.800781 8.828125 -29.3125 C 9.117188 -28.832031 9.265625 -28.285156 9.265625 -27.671875 C 9.265625 -27.046875 9.117188 -26.488281 8.828125 -26 C 8.546875 -25.507812 8.148438 -25.125 7.640625 -24.84375 C 7.128906 -24.570312 6.539062 -24.4375 5.875 -24.4375 Z M 3.140625 0 L 3.140625 -21.828125 L 8.625 -21.828125 L 8.625 0 Z M 3.140625 0 "/></g></g></g><g fill="#2f2e41" fill-opacity="1"><g transform="translate(198.073431, 65.142655)"><g><path d="M 10.21875 0.421875 C 8.71875 0.421875 7.347656 0.242188 6.109375 -0.109375 C 4.867188 -0.460938 3.8125 -0.941406 2.9375 -1.546875 C 2.0625 -2.160156 1.410156 -2.863281 0.984375 -3.65625 L 4.03125 -6.953125 L 4.453125 -6.953125 C 5.179688 -5.972656 6.039062 -5.238281 7.03125 -4.75 C 8.019531 -4.257812 9.09375 -4.015625 10.25 -4.015625 C 11.320312 -4.015625 12.128906 -4.207031 12.671875 -4.59375 C 13.210938 -4.976562 13.484375 -5.523438 13.484375 -6.234375 C 13.484375 -6.785156 13.285156 -7.25 12.890625 -7.625 C 12.503906 -8 11.875 -8.296875 11 -8.515625 L 8.109375 -9.203125 C 5.953125 -9.710938 4.375 -10.5 3.375 -11.5625 C 2.375 -12.625 1.875 -13.972656 1.875 -15.609375 C 1.875 -16.972656 2.21875 -18.15625 2.90625 -19.15625 C 3.601562 -20.15625 4.582031 -20.921875 5.84375 -21.453125 C 7.101562 -21.984375 8.570312 -22.25 10.25 -22.25 C 12.21875 -22.25 13.847656 -21.960938 15.140625 -21.390625 C 16.429688 -20.828125 17.441406 -20.070312 18.171875 -19.125 L 15.234375 -15.953125 L 14.84375 -15.953125 C 14.238281 -16.640625 13.554688 -17.140625 12.796875 -17.453125 C 12.035156 -17.773438 11.1875 -17.9375 10.25 -17.9375 C 8.082031 -17.9375 7 -17.257812 7 -15.90625 C 7 -15.34375 7.203125 -14.878906 7.609375 -14.515625 C 8.015625 -14.160156 8.722656 -13.875 9.734375 -13.65625 L 12.421875 -13.0625 C 14.640625 -12.582031 16.257812 -11.816406 17.28125 -10.765625 C 18.3125 -9.722656 18.828125 -8.316406 18.828125 -6.546875 C 18.828125 -5.160156 18.484375 -3.941406 17.796875 -2.890625 C 17.109375 -1.835938 16.117188 -1.019531 14.828125 -0.4375 C 13.535156 0.132812 12 0.421875 10.21875 0.421875 Z M 10.21875 0.421875 "/></g></g></g><g fill="#2f2e41" fill-opacity="1"><g transform="translate(218.199453, 65.142655)"><g><path d="M 10 0.421875 C 7.539062 0.421875 5.726562 -0.25 4.5625 -1.59375 C 3.394531 -2.9375 2.8125 -4.859375 2.8125 -7.359375 L 2.8125 -21.828125 L 8.296875 -21.828125 L 8.296875 -8.0625 C 8.296875 -6.726562 8.582031 -5.753906 9.15625 -5.140625 C 9.726562 -4.523438 10.613281 -4.21875 11.8125 -4.21875 C 13.332031 -4.21875 14.515625 -4.710938 15.359375 -5.703125 C 16.203125 -6.703125 16.625 -8.269531 16.625 -10.40625 L 16.625 -21.828125 L 22.109375 -21.828125 L 22.109375 0 L 16.84375 0 L 16.84375 -3.203125 L 16.421875 -3.3125 C 15.722656 -2.050781 14.867188 -1.113281 13.859375 -0.5 C 12.847656 0.113281 11.5625 0.421875 10 0.421875 Z M 10 0.421875 "/></g></g></g><g fill="#2f2e41" fill-opacity="1"><g transform="translate(243.450961, 65.142655)"><g><path d="M 9.484375 -28.9375 L 9.484375 -4.796875 L 22.484375 -4.796875 L 22.484375 0 L 3.765625 0 L 3.765625 -28.9375 Z M 9.484375 -28.9375 "/></g></g></g><g fill="#2f2e41" fill-opacity="1"><g transform="translate(266.881828, 65.142655)"><g><path d="M 21.578125 -9.671875 L 7.546875 -9.671875 C 7.703125 -7.773438 8.238281 -6.394531 9.15625 -5.53125 C 10.082031 -4.664062 11.34375 -4.234375 12.9375 -4.234375 C 14.195312 -4.234375 15.210938 -4.46875 15.984375 -4.9375 C 16.765625 -5.40625 17.394531 -6.113281 17.875 -7.0625 L 18.28125 -7.0625 L 21.921875 -4.734375 C 21.210938 -3.203125 20.140625 -1.957031 18.703125 -1 C 17.265625 -0.0507812 15.34375 0.421875 12.9375 0.421875 C 10.6875 0.421875 8.738281 -0.00390625 7.09375 -0.859375 C 5.445312 -1.722656 4.175781 -3.003906 3.28125 -4.703125 C 2.394531 -6.398438 1.953125 -8.46875 1.953125 -10.90625 C 1.953125 -13.382812 2.421875 -15.472656 3.359375 -17.171875 C 4.296875 -18.878906 5.5625 -20.148438 7.15625 -20.984375 C 8.757812 -21.828125 10.554688 -22.25 12.546875 -22.25 C 15.628906 -22.25 17.992188 -21.429688 19.640625 -19.796875 C 21.285156 -18.160156 22.109375 -15.757812 22.109375 -12.59375 C 22.109375 -11.4375 22.066406 -10.546875 21.984375 -9.921875 Z M 16.859375 -13.21875 C 16.804688 -14.882812 16.421875 -16.09375 15.703125 -16.84375 C 14.984375 -17.601562 13.929688 -17.984375 12.546875 -17.984375 C 9.773438 -17.984375 8.144531 -16.394531 7.65625 -13.21875 Z M 16.859375 -13.21875 "/></g></g></g><g fill="#2f2e41" fill-opacity="1"><g transform="translate(290.609554, 65.142655)"><g><path d="M 12.6875 0.421875 C 10.550781 0.421875 8.671875 -0.015625 7.046875 -0.890625 C 5.429688 -1.773438 4.175781 -3.0625 3.28125 -4.75 C 2.394531 -6.445312 1.953125 -8.5 1.953125 -10.90625 C 1.953125 -13.300781 2.394531 -15.347656 3.28125 -17.046875 C 4.175781 -18.753906 5.429688 -20.046875 7.046875 -20.921875 C 8.671875 -21.804688 10.550781 -22.25 12.6875 -22.25 C 14.820312 -22.25 16.695312 -21.804688 18.3125 -20.921875 C 19.925781 -20.046875 21.179688 -18.753906 22.078125 -17.046875 C 22.984375 -15.347656 23.4375 -13.300781 23.4375 -10.90625 C 23.4375 -8.5 22.984375 -6.445312 22.078125 -4.75 C 21.179688 -3.0625 19.925781 -1.773438 18.3125 -0.890625 C 16.695312 -0.015625 14.820312 0.421875 12.6875 0.421875 Z M 12.6875 -4.234375 C 16.070312 -4.234375 17.765625 -6.457031 17.765625 -10.90625 C 17.765625 -13.21875 17.328125 -14.910156 16.453125 -15.984375 C 15.585938 -17.054688 14.332031 -17.59375 12.6875 -17.59375 C 9.289062 -17.59375 7.59375 -15.363281 7.59375 -10.90625 C 7.59375 -6.457031 9.289062 -4.234375 12.6875 -4.234375 Z M 12.6875 -4.234375 "/></g></g></g><g fill="#6c63ff" fill-opacity="1"><g transform="translate(158.850476, 113.21206)"><g><path d="M 14.9375 -28.9375 C 17.007812 -28.9375 18.78125 -28.554688 20.25 -27.796875 C 21.726562 -27.035156 22.84375 -25.972656 23.59375 -24.609375 C 24.34375 -23.242188 24.71875 -21.65625 24.71875 -19.84375 C 24.71875 -18.039062 24.34375 -16.457031 23.59375 -15.09375 C 22.84375 -13.738281 21.726562 -12.679688 20.25 -11.921875 C 18.78125 -11.160156 17.007812 -10.78125 14.9375 -10.78125 L 9.484375 -10.78125 L 9.484375 0 L 3.765625 0 L 3.765625 -28.9375 Z M 14.1875 -15.3125 C 17.363281 -15.3125 18.953125 -16.820312 18.953125 -19.84375 C 18.953125 -22.882812 17.363281 -24.40625 14.1875 -24.40625 L 9.484375 -24.40625 L 9.484375 -15.3125 Z M 14.1875 -15.3125 "/></g></g></g><g fill="#6c63ff" fill-opacity="1"><g transform="translate(185.294637, 113.21206)"><g><path d="M 12.6875 0.421875 C 10.550781 0.421875 8.671875 -0.015625 7.046875 -0.890625 C 5.429688 -1.773438 4.175781 -3.0625 3.28125 -4.75 C 2.394531 -6.445312 1.953125 -8.5 1.953125 -10.90625 C 1.953125 -13.300781 2.394531 -15.347656 3.28125 -17.046875 C 4.175781 -18.753906 5.429688 -20.046875 7.046875 -20.921875 C 8.671875 -21.804688 10.550781 -22.25 12.6875 -22.25 C 14.820312 -22.25 16.695312 -21.804688 18.3125 -20.921875 C 19.925781 -20.046875 21.179688 -18.753906 22.078125 -17.046875 C 22.984375 -15.347656 23.4375 -13.300781 23.4375 -10.90625 C 23.4375 -8.5 22.984375 -6.445312 22.078125 -4.75 C 21.179688 -3.0625 19.925781 -1.773438 18.3125 -0.890625 C 16.695312 -0.015625 14.820312 0.421875 12.6875 0.421875 Z M 12.6875 -4.234375 C 16.070312 -4.234375 17.765625 -6.457031 17.765625 -10.90625 C 17.765625 -13.21875 17.328125 -14.910156 16.453125 -15.984375 C 15.585938 -17.054688 14.332031 -17.59375 12.6875 -17.59375 C 9.289062 -17.59375 7.59375 -15.363281 7.59375 -10.90625 C 7.59375 -6.457031 9.289062 -4.234375 12.6875 -4.234375 Z M 12.6875 -4.234375 "/></g></g></g><g fill="#6c63ff" fill-opacity="1"><g transform="translate(210.669948, 113.21206)"><g><path d="M 3.140625 0 L 3.140625 -21.828125 L 8.46875 -21.828125 L 8.46875 -18.578125 L 8.890625 -18.5 C 9.410156 -19.71875 10.097656 -20.609375 10.953125 -21.171875 C 11.816406 -21.742188 12.863281 -22.03125 14.09375 -22.03125 C 15.332031 -22.03125 16.273438 -21.816406 16.921875 -21.390625 L 15.984375 -16.65625 L 15.578125 -16.578125 C 15.222656 -16.722656 14.878906 -16.828125 14.546875 -16.890625 C 14.210938 -16.960938 13.8125 -17 13.34375 -17 C 11.8125 -17 10.640625 -16.460938 9.828125 -15.390625 C 9.023438 -14.316406 8.625 -12.59375 8.625 -10.21875 L 8.625 0 Z M 3.140625 0 "/></g></g></g><g fill="#6c63ff" fill-opacity="1"><g transform="translate(227.791354, 113.21206)"><g><path d="M 15.0625 -5.203125 L 16.484375 -1.140625 C 15.890625 -0.660156 15.144531 -0.28125 14.25 0 C 13.351562 0.28125 12.335938 0.421875 11.203125 0.421875 C 8.835938 0.421875 7.039062 -0.21875 5.8125 -1.5 C 4.59375 -2.789062 3.984375 -4.664062 3.984375 -7.125 L 3.984375 -17.5 L 0.65625 -17.5 L 0.65625 -21.84375 L 3.984375 -21.84375 L 3.984375 -26.109375 L 9.453125 -27 L 9.453125 -21.84375 L 15.65625 -21.84375 L 15.65625 -17.5 L 9.453125 -17.5 L 9.453125 -7.515625 C 9.453125 -6.429688 9.675781 -5.640625 10.125 -5.140625 C 10.582031 -4.648438 11.238281 -4.40625 12.09375 -4.40625 C 13.070312 -4.40625 13.921875 -4.671875 14.640625 -5.203125 Z M 15.0625 -5.203125 "/></g></g></g><g fill="#6c63ff" fill-opacity="1"><g transform="translate(244.754413, 113.21206)"><g><path d="M 3.8125 0 L 3.8125 -17.5 L 0.734375 -17.5 L 0.734375 -21.84375 L 3.8125 -21.84375 C 3.59375 -22.769531 3.484375 -23.632812 3.484375 -24.4375 C 3.484375 -25.820312 3.800781 -27.003906 4.4375 -27.984375 C 5.070312 -28.972656 5.984375 -29.722656 7.171875 -30.234375 C 8.359375 -30.753906 9.769531 -31.015625 11.40625 -31.015625 C 13.8125 -31.015625 15.609375 -30.597656 16.796875 -29.765625 L 15.515625 -25.734375 L 15.09375 -25.65625 C 14.28125 -26.226562 13.234375 -26.515625 11.953125 -26.515625 C 10.960938 -26.515625 10.21875 -26.273438 9.71875 -25.796875 C 9.226562 -25.316406 8.984375 -24.660156 8.984375 -23.828125 C 8.984375 -23.472656 9.003906 -23.144531 9.046875 -22.84375 C 9.097656 -22.550781 9.179688 -22.21875 9.296875 -21.84375 L 15.53125 -21.84375 L 15.53125 -17.5 L 9.296875 -17.5 L 9.296875 0 Z M 3.8125 0 "/></g></g></g><g fill="#6c63ff" fill-opacity="1"><g transform="translate(260.510066, 113.21206)"><g><path d="M 12.6875 0.421875 C 10.550781 0.421875 8.671875 -0.015625 7.046875 -0.890625 C 5.429688 -1.773438 4.175781 -3.0625 3.28125 -4.75 C 2.394531 -6.445312 1.953125 -8.5 1.953125 -10.90625 C 1.953125 -13.300781 2.394531 -15.347656 3.28125 -17.046875 C 4.175781 -18.753906 5.429688 -20.046875 7.046875 -20.921875 C 8.671875 -21.804688 10.550781 -22.25 12.6875 -22.25 C 14.820312 -22.25 16.695312 -21.804688 18.3125 -20.921875 C 19.925781 -20.046875 21.179688 -18.753906 22.078125 -17.046875 C 22.984375 -15.347656 23.4375 -13.300781 23.4375 -10.90625 C 23.4375 -8.5 22.984375 -6.445312 22.078125 -4.75 C 21.179688 -3.0625 19.925781 -1.773438 18.3125 -0.890625 C 16.695312 -0.015625 14.820312 0.421875 12.6875 0.421875 Z M 12.6875 -4.234375 C 16.070312 -4.234375 17.765625 -6.457031 17.765625 -10.90625 C 17.765625 -13.21875 17.328125 -14.910156 16.453125 -15.984375 C 15.585938 -17.054688 14.332031 -17.59375 12.6875 -17.59375 C 9.289062 -17.59375 7.59375 -15.363281 7.59375 -10.90625 C 7.59375 -6.457031 9.289062 -4.234375 12.6875 -4.234375 Z M 12.6875 -4.234375 "/></g></g></g><g fill="#6c63ff" fill-opacity="1"><g transform="translate(285.885376, 113.21206)"><g><path d="M 9.0625 0.421875 C 7.09375 0.421875 5.59375 -0.109375 4.5625 -1.171875 C 3.53125 -2.234375 3.015625 -3.847656 3.015625 -6.015625 L 3.015625 -30.59375 L 8.484375 -30.59375 L 8.484375 -6.234375 C 8.484375 -4.898438 9.039062 -4.234375 10.15625 -4.234375 C 10.46875 -4.234375 10.800781 -4.285156 11.15625 -4.390625 L 11.4375 -4.3125 L 11.9375 -0.09375 C 11.632812 0.0625 11.226562 0.1875 10.71875 0.28125 C 10.21875 0.375 9.664062 0.421875 9.0625 0.421875 Z M 9.0625 0.421875 "/></g></g></g><g fill="#6c63ff" fill-opacity="1"><g transform="translate(298.434476, 113.21206)"><g><path d="M 5.875 -24.4375 C 4.882812 -24.4375 4.078125 -24.738281 3.453125 -25.34375 C 2.835938 -25.945312 2.53125 -26.722656 2.53125 -27.671875 C 2.53125 -28.609375 2.835938 -29.375 3.453125 -29.96875 C 4.078125 -30.570312 4.882812 -30.875 5.875 -30.875 C 6.539062 -30.875 7.128906 -30.734375 7.640625 -30.453125 C 8.148438 -30.179688 8.546875 -29.800781 8.828125 -29.3125 C 9.117188 -28.832031 9.265625 -28.285156 9.265625 -27.671875 C 9.265625 -27.046875 9.117188 -26.488281 8.828125 -26 C 8.546875 -25.507812 8.148438 -25.125 7.640625 -24.84375 C 7.128906 -24.570312 6.539062 -24.4375 5.875 -24.4375 Z M 3.140625 0 L 3.140625 -21.828125 L 8.625 -21.828125 L 8.625 0 Z M 3.140625 0 "/></g></g></g><g fill="#6c63ff" fill-opacity="1"><g transform="translate(310.191835, 113.21206)"><g><path d="M 12.6875 0.421875 C 10.550781 0.421875 8.671875 -0.015625 7.046875 -0.890625 C 5.429688 -1.773438 4.175781 -3.0625 3.28125 -4.75 C 2.394531 -6.445312 1.953125 -8.5 1.953125 -10.90625 C 1.953125 -13.300781 2.394531 -15.347656 3.28125 -17.046875 C 4.175781 -18.753906 5.429688 -20.046875 7.046875 -20.921875 C 8.671875 -21.804688 10.550781 -22.25 12.6875 -22.25 C 14.820312 -22.25 16.695312 -21.804688 18.3125 -20.921875 C 19.925781 -20.046875 21.179688 -18.753906 22.078125 -17.046875 C 22.984375 -15.347656 23.4375 -13.300781 23.4375 -10.90625 C 23.4375 -8.5 22.984375 -6.445312 22.078125 -4.75 C 21.179688 -3.0625 19.925781 -1.773438 18.3125 -0.890625 C 16.695312 -0.015625 14.820312 0.421875 12.6875 0.421875 Z M 12.6875 -4.234375 C 16.070312 -4.234375 17.765625 -6.457031 17.765625 -10.90625 C 17.765625 -13.21875 17.328125 -14.910156 16.453125 -15.984375 C 15.585938 -17.054688 14.332031 -17.59375 12.6875 -17.59375 C 9.289062 -17.59375 7.59375 -15.363281 7.59375 -10.90625 C 7.59375 -6.457031 9.289062 -4.234375 12.6875 -4.234375 Z M 12.6875 -4.234375 "/></g></g></g></svg>