<svg xmlns="http://www.w3.org/2000/svg" xmlns:xlink="http://www.w3.org/1999/xlink" width="500" zoomAndPan="magnify" viewBox="0 0 375 149.999998" height="200" preserveAspectRatio="xMidYMid meet" version="1.0"><defs><g/><clipPath id="f80d777f0b"><path d="M 31 20 L 150 20 L 150 137.894531 L 31 137.894531 Z M 31 20 " clip-rule="nonzero"/></clipPath></defs><path fill="#2f2e41" d="M 127.949219 119.351562 C 127.949219 119.644531 127.894531 119.929688 127.78125 120.203125 C 127.667969 120.472656 127.507812 120.714844 127.296875 120.921875 C 127.089844 121.132812 126.847656 121.292969 126.578125 121.40625 C 126.304688 121.519531 126.019531 121.574219 125.726562 121.574219 C 125.429688 121.574219 125.148438 121.519531 124.875 121.40625 C 124.601562 121.292969 124.359375 121.132812 124.152344 120.921875 C 123.945312 120.714844 123.785156 120.472656 123.671875 120.203125 C 123.558594 119.929688 123.5 119.644531 123.5 119.351562 C 123.5 119.054688 123.558594 118.773438 123.671875 118.5 C 123.785156 118.226562 123.945312 117.988281 124.152344 117.777344 C 124.359375 117.570312 124.601562 117.410156 124.875 117.296875 C 125.148438 117.183594 125.429688 117.125 125.726562 117.125 C 126.019531 117.125 126.304688 117.183594 126.578125 117.296875 C 126.847656 117.410156 127.089844 117.570312 127.296875 117.777344 C 127.507812 117.988281 127.667969 118.226562 127.78125 118.5 C 127.894531 118.773438 127.949219 119.054688 127.949219 119.351562 Z M 127.949219 119.351562 " fill-opacity="1" fill-rule="nonzero"/><path fill="#2f2e41" d="M 147.46875 79.050781 C 147.46875 110.601562 121.894531 136.175781 90.347656 136.175781 C 58.796875 136.175781 33.222656 110.601562 33.222656 79.050781 C 33.222656 47.503906 58.796875 21.929688 90.347656 21.929688 C 121.890625 21.9375 147.460938 47.507812 147.46875 79.050781 Z M 147.46875 79.050781 " fill-opacity="1" fill-rule="nonzero"/><path fill="#6c63ff" d="M 116.746094 88.824219 C 116.125 125.359375 61.78125 125.355469 61.164062 88.824219 C 61.785156 52.292969 116.128906 52.296875 116.746094 88.824219 Z M 116.746094 88.824219 " fill-opacity="1" fill-rule="nonzero"/><path fill="#ffffff" d="M 87.851562 100.164062 L 87.824219 99.125 C 94.980469 100.082031 96.523438 91.210938 89.304688 94.527344 L 90.953125 82.484375 L 91.980469 82.625 L 90.578125 92.871094 C 98.179688 91.738281 95.367188 101.203125 87.851562 100.164062 Z M 87.851562 100.164062 " fill-opacity="1" fill-rule="nonzero"/><path fill="#ffffff" d="M 97.066406 83.507812 L 102.660156 83.507812 L 102.660156 84.546875 L 97.066406 84.546875 Z M 97.066406 83.507812 " fill-opacity="1" fill-rule="nonzero"/><path fill="#ffffff" d="M 79.410156 83.507812 L 85.003906 83.507812 L 85.003906 84.546875 L 79.410156 84.546875 Z M 79.410156 83.507812 " fill-opacity="1" fill-rule="nonzero"/><path fill="#ffffff" d="M 97.964844 127.683594 C 99.054688 120.324219 90.441406 121.78125 85.878906 121.707031 C 84.390625 121.710938 82.984375 122.386719 82.050781 123.546875 C 81.113281 124.703125 80.75 126.222656 81.0625 127.679688 C 77.53125 128.769531 74.265625 130.574219 71.460938 132.976562 C 83.28125 137.097656 96.125 137.238281 108.035156 133.382812 C 105.128906 130.773438 101.695312 128.828125 97.964844 127.683594 Z M 97.964844 127.683594 " fill-opacity="1" fill-rule="nonzero"/><path fill="#ffffff" d="M 75.882812 75.679688 C 81.035156 72.703125 87.28125 74.988281 92.601562 76.234375 C 102.695312 79.339844 116.851562 75.453125 118.078125 63.429688 C 119.355469 52.246094 104.058594 46.011719 99.167969 57.144531 L 100.589844 56.957031 C 84.734375 33.390625 57.148438 34.285156 57.332031 66.683594 C 57.273438 67.683594 58.828125 67.683594 58.886719 66.683594 C 58.304688 47.589844 70.941406 34.539062 88.804688 46.808594 C 92.890625 49.792969 96.199219 53.742188 99.246094 57.742188 C 101.105469 59.828125 101.511719 50.851562 110.414062 53.203125 C 120.214844 56.996094 117.015625 71.027344 108.257812 74.109375 C 97.4375 79.636719 85.714844 68.917969 75.097656 74.335938 C 74.742188 74.558594 74.628906 75.023438 74.839844 75.386719 C 75.050781 75.75 75.511719 75.878906 75.882812 75.679688 Z M 75.882812 75.679688 " fill-opacity="1" fill-rule="nonzero"/><g clip-path="url(#f80d777f0b)"><path fill="#d9d9d9" d="M 90.347656 137.726562 C 59.753906 137.703125 34.324219 114.160156 31.941406 83.660156 C 29.5625 53.160156 51.03125 25.957031 81.246094 21.183594 C 111.464844 16.410156 140.273438 35.671875 147.410156 65.417969 C 154.546875 95.167969 137.609375 125.402344 108.515625 134.859375 C 102.648438 136.765625 96.515625 137.734375 90.347656 137.726562 Z M 90.347656 23.480469 C 67.867188 23.476562 47.601562 37.015625 38.996094 57.785156 C 30.394531 78.550781 35.148438 102.457031 51.042969 118.351562 C 66.9375 134.246094 90.84375 139 111.609375 130.394531 C 132.375 121.792969 145.914062 101.523438 145.910156 79.046875 C 145.878906 48.371094 121.019531 23.515625 90.347656 23.480469 Z M 90.347656 23.480469 " fill-opacity="1" fill-rule="nonzero"/></g><g fill="#ffffff" fill-opacity="1"><g transform="translate(158.813475, 66.836849)"><g><path d="M 17.203125 0 L 10.296875 0 L 0.515625 -28.9375 L 6.59375 -28.9375 L 13.609375 -7.359375 L 14.109375 -7.359375 L 21.03125 -28.9375 L 26.953125 -28.9375 Z M 17.203125 0 "/></g></g></g><g fill="#ffffff" fill-opacity="1"><g transform="translate(186.285543, 66.836849)"><g><path d="M 5.875 -24.4375 C 4.882812 -24.4375 4.078125 -24.738281 3.453125 -25.34375 C 2.835938 -25.945312 2.53125 -26.722656 2.53125 -27.671875 C 2.53125 -28.609375 2.835938 -29.375 3.453125 -29.96875 C 4.078125 -30.570312 4.882812 -30.875 5.875 -30.875 C 6.539062 -30.875 7.128906 -30.734375 7.640625 -30.453125 C 8.148438 -30.179688 8.546875 -29.800781 8.828125 -29.3125 C 9.117188 -28.832031 9.265625 -28.285156 9.265625 -27.671875 C 9.265625 -27.046875 9.117188 -26.488281 8.828125 -26 C 8.546875 -25.507812 8.148438 -25.125 7.640625 -24.84375 C 7.128906 -24.570312 6.539062 -24.4375 5.875 -24.4375 Z M 3.140625 0 L 3.140625 -21.828125 L 8.625 -21.828125 L 8.625 0 Z M 3.140625 0 "/></g></g></g><g fill="#ffffff" fill-opacity="1"><g transform="translate(198.042321, 66.836849)"><g><path d="M 10.21875 0.421875 C 8.71875 0.421875 7.347656 0.242188 6.109375 -0.109375 C 4.867188 -0.460938 3.8125 -0.941406 2.9375 -1.546875 C 2.0625 -2.160156 1.410156 -2.863281 0.984375 -3.65625 L 4.03125 -6.953125 L 4.453125 -6.953125 C 5.179688 -5.972656 6.039062 -5.238281 7.03125 -4.75 C 8.019531 -4.257812 9.09375 -4.015625 10.25 -4.015625 C 11.320312 -4.015625 12.128906 -4.207031 12.671875 -4.59375 C 13.210938 -4.976562 13.484375 -5.523438 13.484375 -6.234375 C 13.484375 -6.785156 13.285156 -7.25 12.890625 -7.625 C 12.503906 -8 11.875 -8.296875 11 -8.515625 L 8.109375 -9.203125 C 5.953125 -9.710938 4.375 -10.5 3.375 -11.5625 C 2.375 -12.625 1.875 -13.972656 1.875 -15.609375 C 1.875 -16.972656 2.21875 -18.15625 2.90625 -19.15625 C 3.601562 -20.15625 4.582031 -20.921875 5.84375 -21.453125 C 7.101562 -21.984375 8.570312 -22.25 10.25 -22.25 C 12.21875 -22.25 13.847656 -21.960938 15.140625 -21.390625 C 16.429688 -20.828125 17.441406 -20.070312 18.171875 -19.125 L 15.234375 -15.953125 L 14.84375 -15.953125 C 14.238281 -16.640625 13.554688 -17.140625 12.796875 -17.453125 C 12.035156 -17.773438 11.1875 -17.9375 10.25 -17.9375 C 8.082031 -17.9375 7 -17.257812 7 -15.90625 C 7 -15.34375 7.203125 -14.878906 7.609375 -14.515625 C 8.015625 -14.160156 8.722656 -13.875 9.734375 -13.65625 L 12.421875 -13.0625 C 14.640625 -12.582031 16.257812 -11.816406 17.28125 -10.765625 C 18.3125 -9.722656 18.828125 -8.316406 18.828125 -6.546875 C 18.828125 -5.160156 18.484375 -3.941406 17.796875 -2.890625 C 17.109375 -1.835938 16.117188 -1.019531 14.828125 -0.4375 C 13.535156 0.132812 12 0.421875 10.21875 0.421875 Z M 10.21875 0.421875 "/></g></g></g><g fill="#ffffff" fill-opacity="1"><g transform="translate(218.171356, 66.836849)"><g><path d="M 10 0.421875 C 7.539062 0.421875 5.726562 -0.25 4.5625 -1.59375 C 3.394531 -2.9375 2.8125 -4.859375 2.8125 -7.359375 L 2.8125 -21.828125 L 8.296875 -21.828125 L 8.296875 -8.0625 C 8.296875 -6.726562 8.582031 -5.753906 9.15625 -5.140625 C 9.726562 -4.523438 10.613281 -4.21875 11.8125 -4.21875 C 13.332031 -4.21875 14.515625 -4.710938 15.359375 -5.703125 C 16.203125 -6.703125 16.625 -8.269531 16.625 -10.40625 L 16.625 -21.828125 L 22.109375 -21.828125 L 22.109375 0 L 16.84375 0 L 16.84375 -3.203125 L 16.421875 -3.3125 C 15.722656 -2.050781 14.867188 -1.113281 13.859375 -0.5 C 12.847656 0.113281 11.5625 0.421875 10 0.421875 Z M 10 0.421875 "/></g></g></g><g fill="#ffffff" fill-opacity="1"><g transform="translate(243.426657, 66.836849)"><g><path d="M 9.484375 -28.9375 L 9.484375 -4.796875 L 22.484375 -4.796875 L 22.484375 0 L 3.765625 0 L 3.765625 -28.9375 Z M 9.484375 -28.9375 "/></g></g></g><g fill="#ffffff" fill-opacity="1"><g transform="translate(266.861043, 66.836849)"><g><path d="M 21.578125 -9.671875 L 7.546875 -9.671875 C 7.703125 -7.773438 8.238281 -6.394531 9.15625 -5.53125 C 10.082031 -4.664062 11.34375 -4.234375 12.9375 -4.234375 C 14.195312 -4.234375 15.210938 -4.46875 15.984375 -4.9375 C 16.765625 -5.40625 17.394531 -6.113281 17.875 -7.0625 L 18.28125 -7.0625 L 21.921875 -4.734375 C 21.210938 -3.203125 20.140625 -1.957031 18.703125 -1 C 17.265625 -0.0507812 15.34375 0.421875 12.9375 0.421875 C 10.6875 0.421875 8.738281 -0.00390625 7.09375 -0.859375 C 5.445312 -1.722656 4.175781 -3.003906 3.28125 -4.703125 C 2.394531 -6.398438 1.953125 -8.46875 1.953125 -10.90625 C 1.953125 -13.382812 2.421875 -15.472656 3.359375 -17.171875 C 4.296875 -18.878906 5.5625 -20.148438 7.15625 -20.984375 C 8.757812 -21.828125 10.554688 -22.25 12.546875 -22.25 C 15.628906 -22.25 17.992188 -21.429688 19.640625 -19.796875 C 21.285156 -18.160156 22.109375 -15.757812 22.109375 -12.59375 C 22.109375 -11.4375 22.066406 -10.546875 21.984375 -9.921875 Z M 16.859375 -13.21875 C 16.804688 -14.882812 16.421875 -16.09375 15.703125 -16.84375 C 14.984375 -17.601562 13.929688 -17.984375 12.546875 -17.984375 C 9.773438 -17.984375 8.144531 -16.394531 7.65625 -13.21875 Z M 16.859375 -13.21875 "/></g></g></g><g fill="#ffffff" fill-opacity="1"><g transform="translate(290.592323, 66.836849)"><g><path d="M 12.6875 0.421875 C 10.550781 0.421875 8.671875 -0.015625 7.046875 -0.890625 C 5.429688 -1.773438 4.175781 -3.0625 3.28125 -4.75 C 2.394531 -6.445312 1.953125 -8.5 1.953125 -10.90625 C 1.953125 -13.300781 2.394531 -15.347656 3.28125 -17.046875 C 4.175781 -18.753906 5.429688 -20.046875 7.046875 -20.921875 C 8.671875 -21.804688 10.550781 -22.25 12.6875 -22.25 C 14.820312 -22.25 16.695312 -21.804688 18.3125 -20.921875 C 19.925781 -20.046875 21.179688 -18.753906 22.078125 -17.046875 C 22.984375 -15.347656 23.4375 -13.300781 23.4375 -10.90625 C 23.4375 -8.5 22.984375 -6.445312 22.078125 -4.75 C 21.179688 -3.0625 19.925781 -1.773438 18.3125 -0.890625 C 16.695312 -0.015625 14.820312 0.421875 12.6875 0.421875 Z M 12.6875 -4.234375 C 16.070312 -4.234375 17.765625 -6.457031 17.765625 -10.90625 C 17.765625 -13.21875 17.328125 -14.910156 16.453125 -15.984375 C 15.585938 -17.054688 14.332031 -17.59375 12.6875 -17.59375 C 9.289062 -17.59375 7.59375 -15.363281 7.59375 -10.90625 C 7.59375 -6.457031 9.289062 -4.234375 12.6875 -4.234375 Z M 12.6875 -4.234375 "/></g></g></g><g fill="#6f66ff" fill-opacity="1"><g transform="translate(158.851047, 113.836709)"><g><path d="M 14.9375 -28.9375 C 17.007812 -28.9375 18.78125 -28.554688 20.25 -27.796875 C 21.726562 -27.035156 22.84375 -25.972656 23.59375 -24.609375 C 24.34375 -23.242188 24.71875 -21.65625 24.71875 -19.84375 C 24.71875 -18.039062 24.34375 -16.457031 23.59375 -15.09375 C 22.84375 -13.738281 21.726562 -12.679688 20.25 -11.921875 C 18.78125 -11.160156 17.007812 -10.78125 14.9375 -10.78125 L 9.484375 -10.78125 L 9.484375 0 L 3.765625 0 L 3.765625 -28.9375 Z M 14.1875 -15.3125 C 17.363281 -15.3125 18.953125 -16.820312 18.953125 -19.84375 C 18.953125 -22.882812 17.363281 -24.40625 14.1875 -24.40625 L 9.484375 -24.40625 L 9.484375 -15.3125 Z M 14.1875 -15.3125 "/></g></g></g><g fill="#6f66ff" fill-opacity="1"><g transform="translate(185.293902, 113.836709)"><g><path d="M 12.6875 0.421875 C 10.550781 0.421875 8.671875 -0.015625 7.046875 -0.890625 C 5.429688 -1.773438 4.175781 -3.0625 3.28125 -4.75 C 2.394531 -6.445312 1.953125 -8.5 1.953125 -10.90625 C 1.953125 -13.300781 2.394531 -15.347656 3.28125 -17.046875 C 4.175781 -18.753906 5.429688 -20.046875 7.046875 -20.921875 C 8.671875 -21.804688 10.550781 -22.25 12.6875 -22.25 C 14.820312 -22.25 16.695312 -21.804688 18.3125 -20.921875 C 19.925781 -20.046875 21.179688 -18.753906 22.078125 -17.046875 C 22.984375 -15.347656 23.4375 -13.300781 23.4375 -10.90625 C 23.4375 -8.5 22.984375 -6.445312 22.078125 -4.75 C 21.179688 -3.0625 19.925781 -1.773438 18.3125 -0.890625 C 16.695312 -0.015625 14.820312 0.421875 12.6875 0.421875 Z M 12.6875 -4.234375 C 16.070312 -4.234375 17.765625 -6.457031 17.765625 -10.90625 C 17.765625 -13.21875 17.328125 -14.910156 16.453125 -15.984375 C 15.585938 -17.054688 14.332031 -17.59375 12.6875 -17.59375 C 9.289062 -17.59375 7.59375 -15.363281 7.59375 -10.90625 C 7.59375 -6.457031 9.289062 -4.234375 12.6875 -4.234375 Z M 12.6875 -4.234375 "/></g></g></g><g fill="#6f66ff" fill-opacity="1"><g transform="translate(210.667958, 113.836709)"><g><path d="M 3.140625 0 L 3.140625 -21.828125 L 8.46875 -21.828125 L 8.46875 -18.578125 L 8.890625 -18.5 C 9.410156 -19.71875 10.097656 -20.609375 10.953125 -21.171875 C 11.816406 -21.742188 12.863281 -22.03125 14.09375 -22.03125 C 15.332031 -22.03125 16.273438 -21.816406 16.921875 -21.390625 L 15.984375 -16.65625 L 15.578125 -16.578125 C 15.222656 -16.722656 14.878906 -16.828125 14.546875 -16.890625 C 14.210938 -16.960938 13.8125 -17 13.34375 -17 C 11.8125 -17 10.640625 -16.460938 9.828125 -15.390625 C 9.023438 -14.316406 8.625 -12.59375 8.625 -10.21875 L 8.625 0 Z M 3.140625 0 "/></g></g></g><g fill="#6f66ff" fill-opacity="1"><g transform="translate(227.788524, 113.836709)"><g><path d="M 15.0625 -5.203125 L 16.484375 -1.140625 C 15.890625 -0.660156 15.144531 -0.28125 14.25 0 C 13.351562 0.28125 12.335938 0.421875 11.203125 0.421875 C 8.835938 0.421875 7.039062 -0.21875 5.8125 -1.5 C 4.59375 -2.789062 3.984375 -4.664062 3.984375 -7.125 L 3.984375 -17.5 L 0.65625 -17.5 L 0.65625 -21.84375 L 3.984375 -21.84375 L 3.984375 -26.109375 L 9.453125 -27 L 9.453125 -21.84375 L 15.65625 -21.84375 L 15.65625 -17.5 L 9.453125 -17.5 L 9.453125 -7.515625 C 9.453125 -6.429688 9.675781 -5.640625 10.125 -5.140625 C 10.582031 -4.648438 11.238281 -4.40625 12.09375 -4.40625 C 13.070312 -4.40625 13.921875 -4.671875 14.640625 -5.203125 Z M 15.0625 -5.203125 "/></g></g></g><g fill="#6f66ff" fill-opacity="1"><g transform="translate(244.75075, 113.836709)"><g><path d="M 3.8125 0 L 3.8125 -17.5 L 0.734375 -17.5 L 0.734375 -21.84375 L 3.8125 -21.84375 C 3.59375 -22.769531 3.484375 -23.632812 3.484375 -24.4375 C 3.484375 -25.820312 3.800781 -27.003906 4.4375 -27.984375 C 5.070312 -28.972656 5.984375 -29.722656 7.171875 -30.234375 C 8.359375 -30.753906 9.769531 -31.015625 11.40625 -31.015625 C 13.8125 -31.015625 15.609375 -30.597656 16.796875 -29.765625 L 15.515625 -25.734375 L 15.09375 -25.65625 C 14.28125 -26.226562 13.234375 -26.515625 11.953125 -26.515625 C 10.960938 -26.515625 10.21875 -26.273438 9.71875 -25.796875 C 9.226562 -25.316406 8.984375 -24.660156 8.984375 -23.828125 C 8.984375 -23.472656 9.003906 -23.144531 9.046875 -22.84375 C 9.097656 -22.550781 9.179688 -22.21875 9.296875 -21.84375 L 15.53125 -21.84375 L 15.53125 -17.5 L 9.296875 -17.5 L 9.296875 0 Z M 3.8125 0 "/></g></g></g><g fill="#6f66ff" fill-opacity="1"><g transform="translate(260.505624, 113.836709)"><g><path d="M 12.6875 0.421875 C 10.550781 0.421875 8.671875 -0.015625 7.046875 -0.890625 C 5.429688 -1.773438 4.175781 -3.0625 3.28125 -4.75 C 2.394531 -6.445312 1.953125 -8.5 1.953125 -10.90625 C 1.953125 -13.300781 2.394531 -15.347656 3.28125 -17.046875 C 4.175781 -18.753906 5.429688 -20.046875 7.046875 -20.921875 C 8.671875 -21.804688 10.550781 -22.25 12.6875 -22.25 C 14.820312 -22.25 16.695312 -21.804688 18.3125 -20.921875 C 19.925781 -20.046875 21.179688 -18.753906 22.078125 -17.046875 C 22.984375 -15.347656 23.4375 -13.300781 23.4375 -10.90625 C 23.4375 -8.5 22.984375 -6.445312 22.078125 -4.75 C 21.179688 -3.0625 19.925781 -1.773438 18.3125 -0.890625 C 16.695312 -0.015625 14.820312 0.421875 12.6875 0.421875 Z M 12.6875 -4.234375 C 16.070312 -4.234375 17.765625 -6.457031 17.765625 -10.90625 C 17.765625 -13.21875 17.328125 -14.910156 16.453125 -15.984375 C 15.585938 -17.054688 14.332031 -17.59375 12.6875 -17.59375 C 9.289062 -17.59375 7.59375 -15.363281 7.59375 -10.90625 C 7.59375 -6.457031 9.289062 -4.234375 12.6875 -4.234375 Z M 12.6875 -4.234375 "/></g></g></g><g fill="#6f66ff" fill-opacity="1"><g transform="translate(285.87968, 113.836709)"><g><path d="M 9.0625 0.421875 C 7.09375 0.421875 5.59375 -0.109375 4.5625 -1.171875 C 3.53125 -2.234375 3.015625 -3.847656 3.015625 -6.015625 L 3.015625 -30.59375 L 8.484375 -30.59375 L 8.484375 -6.234375 C 8.484375 -4.898438 9.039062 -4.234375 10.15625 -4.234375 C 10.46875 -4.234375 10.800781 -4.285156 11.15625 -4.390625 L 11.4375 -4.3125 L 11.9375 -0.09375 C 11.632812 0.0625 11.226562 0.1875 10.71875 0.28125 C 10.21875 0.375 9.664062 0.421875 9.0625 0.421875 Z M 9.0625 0.421875 "/></g></g></g><g fill="#6f66ff" fill-opacity="1"><g transform="translate(298.42816, 113.836709)"><g><path d="M 5.875 -24.4375 C 4.882812 -24.4375 4.078125 -24.738281 3.453125 -25.34375 C 2.835938 -25.945312 2.53125 -26.722656 2.53125 -27.671875 C 2.53125 -28.609375 2.835938 -29.375 3.453125 -29.96875 C 4.078125 -30.570312 4.882812 -30.875 5.875 -30.875 C 6.539062 -30.875 7.128906 -30.734375 7.640625 -30.453125 C 8.148438 -30.179688 8.546875 -29.800781 8.828125 -29.3125 C 9.117188 -28.832031 9.265625 -28.285156 9.265625 -27.671875 C 9.265625 -27.046875 9.117188 -26.488281 8.828125 -26 C 8.546875 -25.507812 8.148438 -25.125 7.640625 -24.84375 C 7.128906 -24.570312 6.539062 -24.4375 5.875 -24.4375 Z M 3.140625 0 L 3.140625 -21.828125 L 8.625 -21.828125 L 8.625 0 Z M 3.140625 0 "/></g></g></g><g fill="#6f66ff" fill-opacity="1"><g transform="translate(310.184938, 113.836709)"><g><path d="M 12.6875 0.421875 C 10.550781 0.421875 8.671875 -0.015625 7.046875 -0.890625 C 5.429688 -1.773438 4.175781 -3.0625 3.28125 -4.75 C 2.394531 -6.445312 1.953125 -8.5 1.953125 -10.90625 C 1.953125 -13.300781 2.394531 -15.347656 3.28125 -17.046875 C 4.175781 -18.753906 5.429688 -20.046875 7.046875 -20.921875 C 8.671875 -21.804688 10.550781 -22.25 12.6875 -22.25 C 14.820312 -22.25 16.695312 -21.804688 18.3125 -20.921875 C 19.925781 -20.046875 21.179688 -18.753906 22.078125 -17.046875 C 22.984375 -15.347656 23.4375 -13.300781 23.4375 -10.90625 C 23.4375 -8.5 22.984375 -6.445312 22.078125 -4.75 C 21.179688 -3.0625 19.925781 -1.773438 18.3125 -0.890625 C 16.695312 -0.015625 14.820312 0.421875 12.6875 0.421875 Z M 12.6875 -4.234375 C 16.070312 -4.234375 17.765625 -6.457031 17.765625 -10.90625 C 17.765625 -13.21875 17.328125 -14.910156 16.453125 -15.984375 C 15.585938 -17.054688 14.332031 -17.59375 12.6875 -17.59375 C 9.289062 -17.59375 7.59375 -15.363281 7.59375 -10.90625 C 7.59375 -6.457031 9.289062 -4.234375 12.6875 -4.234375 Z M 12.6875 -4.234375 "/></g></g></g></svg>