<svg width="502" height="122" viewBox="0 0 502 122" fill="none" xmlns="http://www.w3.org/2000/svg">
<path d="M50.5787 1.0008C46.3567 1.0208 42.3267 1.3798 38.7787 2.0078C28.3287 3.8538 26.4327 7.7178 26.4327 14.8448V24.2558H51.1257V27.3928H17.1647C9.9887 27.3928 3.7047 31.7058 1.7387 39.9138C-0.529298 49.3188 -0.629298 55.1888 1.7387 65.0098C3.4937 72.3208 7.6857 77.5288 14.8627 77.5288H23.3537V66.2468C23.3537 58.0958 30.4047 50.9068 38.7797 50.9068H63.4447C70.3107 50.9068 75.7907 45.2528 75.7907 38.3588V14.8458C75.7907 8.1528 70.1447 3.1258 63.4447 2.0088C59.2007 1.3028 54.7997 0.981795 50.5787 1.0008V1.0008ZM37.2247 8.5698C39.7747 8.5698 41.8587 10.6868 41.8587 13.2908C41.8587 15.8838 39.7757 17.9808 37.2247 17.9808C34.6647 17.9808 32.5917 15.8838 32.5917 13.2908C32.5907 10.6868 34.6647 8.5698 37.2247 8.5698V8.5698Z" fill="url(#paint0_linear_0_1)"/>
<path d="M78.8699 27.3926V38.3586C78.8699 46.8586 71.6619 54.0136 63.4439 54.0136H38.7789C32.0229 54.0136 26.4329 59.7966 26.4329 66.5626V90.0776C26.4329 96.7686 32.2509 100.706 38.7789 102.625C46.5949 104.922 54.0909 105.338 63.4439 102.625C69.6599 100.824 75.7899 97.2016 75.7899 90.0776V80.6656H51.1259V77.5276H88.1379C95.3139 77.5276 97.9899 72.5226 100.486 65.0086C103.064 57.2736 102.953 49.8346 100.486 39.9126C98.7119 32.7676 95.3249 27.3916 88.1379 27.3916H78.8699V27.3926ZM64.9969 86.9396C67.5579 86.9396 69.6309 89.0366 69.6309 91.6316C69.6309 94.2336 67.5569 96.3506 64.9969 96.3506C62.4469 96.3506 60.3639 94.2336 60.3639 91.6316C60.3639 89.0366 62.4469 86.9396 64.9969 86.9396V86.9396Z" fill="url(#paint1_linear_0_1)"/>
<path fill-rule="evenodd" clip-rule="evenodd" d="M501.258 73.784C500.808 70.866 498.357 68.955 495.506 68.826C494.474 68.779 493.426 68.887 492.397 69.018C491.154 69.176 489.926 69.456 488.686 69.641C487.829 69.769 486.96 69.828 486.104 69.916L486.083 69.805C487.681 66.787 489.346 63.802 490.858 60.741C492.017 58.393 493.009 55.96 494.034 53.547C495.73 49.549 497.085 45.427 498.207 41.238C499.282 37.227 500.202 33.172 500.491 29.011C500.607 27.349 500.687 25.68 500.678 24.016C500.67 22.689 500.527 21.36 500.394 20.037C500.244 18.521 499.786 17.084 499.152 15.701C498.316 13.879 497.02 12.384 495.656 10.964C494.564 9.827 493.363 8.791 492.172 7.756C490.474 6.279 488.565 5.1 486.582 4.053C484.336 2.85933 481.956 1.93622 479.492 1.303C477.999 0.922 476.472 0.639 474.96 0.337C474.416 0.227 473.871 0 473.327 0H463.086C462.716 0 462.349 0.191 461.976 0.233C459.524 0.506 457.101 0.968 454.748 1.697C453.868 1.97 453.064 1.798 452.228 1.721C451.587 1.662 450.957 1.49 450.316 1.458C447.874 1.336 445.429 1.157 442.988 1.183C440.649 1.207 438.334 1.592 436.07 2.235C434.175 2.773 432.321 3.43 430.623 4.426C429.896 4.852 429.32 4.772 428.568 4.555C426.041 3.826 423.496 3.141 420.929 2.566C419.329 2.208 417.684 2.03 416.05 1.859C414.482 1.69605 412.908 1.59796 411.332 1.565C409.794 1.532 408.245 1.533 406.714 1.669C404.275 1.881 401.872 2.38907 399.556 3.182C396.991 4.05772 394.595 5.36483 392.47 7.047C390.303 8.762 388.565 10.856 387.167 13.247C385.694 15.77 384.684 18.471 384.056 21.308C383.716 22.845 383.501 24.425 383.268 25.986C383.195 26.472 384 26.958 383 27.442V34.236C384 34.688 383.208 35.139 383.266 35.592C383.405 36.681 383.528 37.779 383.712 38.86C384.003 40.571 384.348 42.277 384.7 43.977C385.189 46.353 385.704 48.7235 386.246 51.088C386.642 52.808 387.093 54.518 387.565 56.219C388.286 58.817 388.996 61.42 389.811 63.989C390.568 66.376 391.435 68.729 392.295 71.082C393.486 74.337 394.912 77.487 396.622 80.506C398.101 83.12 399.791 85.568 402.058 87.582C403.552 88.909 405.215 89.929 407.151 90.439C408.672 90.839 410.218 90.887 411.775 90.568C413.549 90.2071 415.206 89.4133 416.599 88.257C416.762 88.123 416.941 88.021 417.134 88.267C417.869 89.198 418.853 89.819 419.882 90.356C422.659 91.804 425.685 92.238 428.759 92.415C429.503 92.458 430.255 92.351 431.005 92.33C432.466 92.29 433.886 92.005 435.283 91.601C436.015 91.389 436.73 91.12 437.475 90.869C437.514 91.662 437.564 92.426 437.587 93.19L437.691 97.356C437.71 97.99 437.735 98.626 437.794 99.257C437.945 100.884 438.093 102.512 438.287 104.134C438.422 105.252 438.562 106.379 438.825 107.47C439.352 109.672 440.074 111.824 440.983 113.898C441.853 115.912 443.19 117.689 444.883 119.083C447.103 120.919 449.705 121.702 452.515 121.847C453.677 121.908 454.872 121.851 456.016 121.643C457.834 121.32 459.633 120.894 461.403 120.368C464.994 119.284 468.098 117.412 470.417 114.387C471.737 112.663 472.821 110.798 473.517 108.739C474.091 107.038 474.632 105.32 475.062 103.579C475.402 102.207 475.57 100.792 475.777 99.391C475.914 98.464 475.996 97.528 476.082 96.594C476.222 95.077 476.365 93.561 476.466 92.041C476.536 90.983 476.533 89.92 476.575 88.86C476.588 88.537 476.64 88.216 476.67 87.894C476.698 87.596 476.848 87.493 477.152 87.498C478.223 87.514 479.296 87.542 480.364 87.494C481.561 87.44 482.769 87.389 483.947 87.191C485.626 86.9106 487.291 86.5546 488.937 86.124C490.88 85.616 492.662 84.706 494.377 83.669C496.375 82.462 498.196 81.046 499.674 79.222C500.959 77.631 501.568 75.792 501.258 73.784V73.784ZM497.846 74.766C497.78 75.681 497.361 76.465 496.753 77.135C493.884 80.298 490.285 82.217 486.168 83.162C484.604 83.52 482.99 83.706 481.389 83.854C480.021 83.9743 478.647 84.0067 477.275 83.951C476.269 83.913 475.271 83.683 474.243 83.535C474.14 84.475 474.042 85.454 473.923 86.431L473.444 90.176C473.299 91.363 473.186 92.554 473.037 93.74C472.891 94.891 472.709 96.038 472.556 97.189C472.413 98.261 472.308 99.338 472.149 100.408C471.904 102.048 471.67 103.692 471.35 105.319C470.966 107.264 470.377 109.148 469.416 110.902C468.244 113.043 466.582 114.674 464.467 115.882C462.287 117.128 459.904 117.776 457.488 118.318C455.778 118.702 454.016 118.765 452.284 118.609C449.28 118.337 446.716 117.052 444.778 114.723C442.928 112.5 441.676 109.952 441.228 107.068C441.019 105.695 440.855 104.316 440.737 102.932C440.604 101.394 440.505 99.854 440.438 98.312C440.349 96.3558 440.284 94.3987 440.241 92.441C440.188 90.035 440.171 87.629 440.137 85.223L440.131 85.131C438.907 85.865 437.704 86.669 436.428 87.331C434.937 88.1024 433.304 88.5627 431.63 88.684C430.312 88.784 428.977 88.875 427.665 88.77C425.514 88.597 423.365 88.26 421.439 87.201C420.658 86.771 419.843 86.248 419.305 85.561C418.015 83.915 418.633 81.835 420.578 80.834C421.922 80.141 423.389 79.852 424.846 79.515C426.114 79.2273 427.369 78.8839 428.607 78.486C429.829 78.086 430.6 77.095 431.361 76.123L432.567 74.572C432.064 74.519 431.59 74.465 431.116 74.421C429.677 74.285 428.304 73.889 426.991 73.307C425.867 72.81 425.85 72.756 425.026 73.65C423.65 75.144 422.312 76.673 420.964 78.192C419.972 79.309 418.986 80.433 417.999 81.553C417.021 82.661 416.105 83.832 415.052 84.863C413.488 86.394 411.603 87.315 409.354 87.211C407.911 87.145 406.59 86.639 405.402 85.812C402.95 84.104 401.298 81.715 399.794 79.206C397.867 75.991 396.388 72.566 395.122 69.047C394.246 66.615 393.366 64.181 392.601 61.714C391.77 59.033 391.041 56.318 390.324 53.604C389.788 51.5535 389.294 49.4924 388.842 47.422C388.315 45.0707 387.826 42.7107 387.378 40.343C387.08 38.744 386.907 37.122 386.666 35.512C386.341 33.342 386.281 31.152 386.399 28.973C386.504 27.01 386.786 25.052 387.066 23.102C387.454 20.404 388.343 17.858 389.622 15.454C390.405 13.981 391.377 12.642 392.501 11.398C394.346 9.356 396.579 7.88 399.063 6.772C400.799 5.998 402.633 5.532 404.502 5.168C407.276 4.628 410.075 4.649 412.875 4.707C414.099 4.732 415.318 4.955 416.541 5.076C419.174 5.338 421.755 5.892 424.303 6.576C426.16 7.074 427.979 7.719 429.821 8.279C430.006 8.335 430.277 8.33 430.428 8.231C432.924 6.602 435.652 5.527 438.553 4.912C439.654 4.679 440.79 4.577 441.916 4.505C443.285 4.418 444.665 4.338 446.031 4.417C447.673 4.511 449.307 4.753 450.939 4.977C451.731 5.085 452.504 5.36 453.298 5.435C453.678 5.471 454.081 5.193 454.483 5.1C456.532 4.627 458.572 4.1 460.639 3.726C462.178 3.448 463.75 3.317 465.315 3.227C467.06 3.127 468.818 3.054 470.562 3.138C472.77 3.24736 474.964 3.55629 477.117 4.061C479.794 4.684 482.362 5.589 484.803 6.845C486.627 7.783 488.361 8.871 489.922 10.209C490.945 11.087 491.992 11.954 492.916 12.932C494.056 14.138 495.219 15.345 495.934 16.89C496.472 18.055 496.856 19.261 496.962 20.537C497.094 22.123 497.254 23.715 497.239 25.303C497.225 26.822 497.018 28.34 496.871 29.855C496.537 33.309 495.786 36.688 494.874 40.022C494.111 42.776 493.248 45.5012 492.285 48.192C491.406 50.673 490.392 53.109 489.367 55.535C488.612 57.332 487.793 59.1008 486.909 60.838C485.232 64.124 483.488 67.376 481.471 70.471C481.123 71.006 480.793 71.554 480.453 72.1C481.333 72.694 482.33 72.903 483.334 73.011C484.289 73.115 485.263 73.177 486.217 73.106C487.744 72.993 489.266 72.775 490.784 72.562C492.288 72.352 493.762 71.924 495.306 72.037C496.848 72.149 497.951 73.321 497.846 74.766V74.766ZM475.833 71.413C475.178 70.567 474.51 69.731 473.869 68.875C472.863 67.531 472.14 66.03 471.414 64.522C470.726 63.093 469.882 61.74 469.157 60.327C467.892 57.862 466.604 55.405 465.439 52.892C463.974 49.735 462.819 46.466 462.455 42.969C462.301 41.489 462.262 40.011 462.561 38.545C463.04 36.204 464.263 34.373 466.319 33.117C468.226 31.952 470.351 31.576 472.528 31.458C473.879 31.385 475.236 31.445 476.638 31.445L476.591 31.208C475.719 29.385 474.904 27.531 473.95 25.751C472.604 23.239 470.882 20.974 468.964 18.874C467.543 17.319 466.004 15.876 464.318 14.601C462.66 13.346 460.913 12.225 459.049 11.308C456.826 10.215 454.511 9.37 452.082 8.831C449.748 8.313 447.399 7.996 445.005 7.97C442.963 7.948 440.934 8.04 438.945 8.501C435.943 9.196 433.197 10.432 430.808 12.434C429.486 13.5425 428.305 14.8086 427.291 16.204C426.095 17.847 425.13 19.621 424.305 21.481C423.173 24.033 422.396 26.689 421.865 29.419C421.599 30.78 421.391 32.153 421.179 33.525C421.105 34.005 421.099 34.496 421.056 35.046C421.425 34.854 421.691 34.706 421.963 34.574L422.848 34.177C425.841 32.808 428.942 31.927 432.275 32.028C433.691 32.071 435.046 32.351 436.305 32.971C438.72 34.162 440.133 36.187 440.747 38.75C441.171 40.519 441.461 42.323 441.743 44.122C441.964 45.527 442.19 46.947 442.216 48.364C442.253 50.435 442.148 52.51 442.035 54.58C441.938 56.3402 441.574 58.0753 440.955 59.726C439.835 62.719 438.587 65.663 437.421 68.639C437.036 69.622 436.74 70.64 436.376 71.721C436.938 71.721 437.394 71.717 437.85 71.723C438.028 71.726 438.21 71.731 438.382 71.772C439.722 72.088 440.884 72.695 441.837 73.726C443.108 75.098 443.775 76.699 443.809 78.552C443.828 79.579 443.72 80.609 443.725 81.636C443.746 86.422 443.782 91.208 443.822 95.993C443.829 96.775 443.868 97.558 443.924 98.339C444.041 99.974 444.159 101.61 444.319 103.241C444.431 104.398 444.587 105.553 444.77 106.702C445.029 108.33 445.77 109.779 446.611 111.164C447.335 112.355 448.276 113.367 449.516 114.065C451.623 115.251 453.892 115.35 456.179 114.913C457.724 114.618 459.241 114.144 460.741 113.655C462.216 113.182 463.563 112.376 464.678 111.301C465.729 110.282 466.475 109.04 466.978 107.669C467.954 105.01 468.258 102.21 468.662 99.432C468.813 98.392 468.944 97.349 469.082 96.307C469.239 95.121 469.398 93.936 469.55 92.751C469.662 91.868 469.764 90.983 469.872 90.1C470.026 88.832 470.189 87.565 470.336 86.296C470.449 85.315 470.545 84.33 470.645 83.347C470.774 82.091 470.913 80.835 471.024 79.577C471.11 78.622 471.075 77.65 471.244 76.713C471.555 74.995 472.367 73.533 473.89 72.588C474.527 72.193 475.246 71.933 475.953 71.599L475.833 71.413V71.413ZM418.236 64.361C417.476 62.5749 417.019 60.675 416.882 58.739C416.754 56.914 416.971 55.096 417.158 53.279C417.34 51.519 417.491 49.751 417.544 47.983C417.632 45.077 417.436 42.175 417.297 39.271C417.213 37.542 417.414 35.792 417.568 34.059C417.707 32.498 417.88 30.933 418.175 29.395C418.67 26.814 419.327 24.27 420.261 21.804C421.148 19.466 422.167 17.189 423.606 15.139C424.592 13.733 425.711 12.419 426.786 11.045L426.467 10.932C422.969 9.821 419.414 8.953 415.758 8.574C414.029 8.395 412.294 8.29 410.56 8.187C410.028 8.155 409.488 8.227 408.954 8.278C407.632 8.404 406.294 8.454 404.993 8.702C402.779 9.123 400.655 9.831 398.688 10.984C396.922 12.019 395.439 13.357 394.197 14.962C392.825 16.734 391.902 18.738 391.239 20.875C390.456 23.396 390.083 25.99 389.982 28.608C389.894 30.903 389.85 33.211 390.246 35.497C390.541 37.199 390.738 38.919 391.063 40.614C391.506 42.925 391.981 45.231 392.53 47.518C393.315 50.792 394.099 54.071 395.029 57.305C395.919 60.404 396.923 63.475 398.011 66.509C398.901 68.985 399.93 71.415 401.014 73.813C401.72 75.375 402.575 76.878 403.471 78.341C404.424 79.894 405.508 81.368 406.979 82.495C408.835 83.918 410.272 84.139 412.158 82.578C412.966 81.909 413.649 81.083 414.352 80.296C415.469 79.046 416.547 77.762 417.659 76.508C419.075 74.91 420.509 73.329 421.932 71.739C422.233 71.403 422.522 71.057 422.815 70.717L422.331 70.292C420.574 68.6169 419.18 66.598 418.236 64.361V64.361ZM471.924 16.792C473.087 18.1447 474.192 19.5473 475.233 20.996C477.233 23.805 478.831 26.838 480.008 30.083C480.529 31.513 480.945 32.957 480.759 34.522C480.63 35.618 480.641 36.73 480.544 37.832C480.463 38.749 480.318 39.661 480.199 40.575C480.021 41.953 479.763 43.327 479.686 44.711C479.613 46.028 479.689 47.359 479.772 48.679C479.856 50.02 480.037 51.355 480.16 52.694C480.299 54.212 480.486 55.73 480.529 57.251C480.564 58.5 480.453 59.757 480.344 61.004C480.214 62.506 479.833 63.96 479.265 65.355C478.866 66.337 478.389 67.289 477.938 68.272L478.119 68.464L478.394 68.677L478.671 68.181C481.01 64.4996 483.089 60.6593 484.893 56.688C486.047 54.1245 487.143 51.5351 488.18 48.922C489.804 44.858 491.089 40.68 492.083 36.419C492.529 34.506 492.87 32.564 493.173 30.622C493.409 29.104 493.606 27.568 493.65 26.036C493.697 24.411 493.607 22.773 493.457 21.152C493.345 19.928 493.043 18.696 492.276 17.701C491.043 16.099 489.712 14.567 488.075 13.355C486.697 12.334 485.324 11.287 483.845 10.428C481.5 9.068 478.962 8.162 476.31 7.545C473.722 6.942 471.1 6.682 468.461 6.627C466.905 6.594 465.342 6.761 463.789 6.907C462.382 7.039 460.984 7.264 459.567 7.45C461.087 8.305 462.586 9.065 464 9.961C466.973 11.844 469.637 14.11 471.924 16.792V16.792ZM433.299 69.514C434.26 66.441 435.569 63.507 436.837 60.555C437.865 58.161 438.427 55.639 438.614 53.049C438.707 51.772 438.681 50.479 438.618 49.198C438.555 47.7729 438.425 46.3516 438.226 44.939C437.96 43.138 437.657 41.336 437.231 39.568C436.769 37.655 435.604 36.323 433.608 35.832C432.392 35.533 431.184 35.545 429.955 35.739C426.953 36.212 424.205 37.318 421.645 38.938C421.13 39.264 420.847 39.527 420.936 40.266C421.124 41.831 421.165 43.421 421.158 45.001C421.148 47.237 421.053 49.473 420.968 51.708C420.94 52.436 420.835 53.16 420.757 53.885C420.637 54.995 420.406 56.104 420.413 57.212C420.42 58.354 420.537 59.523 420.814 60.629C421.694 64.136 423.558 67.006 426.613 69.031C428.492 70.276 430.571 70.904 432.853 71.023C433.008 70.499 433.146 70.004 433.299 69.514ZM429.713 39.427C429.311 38.583 429.541 37.884 430.473 37.56C430.7 37.48 430.934 37.395 431.17 37.372C431.494 37.34 431.824 37.364 432.152 37.364C433.334 37.37 434.471 37.535 435.447 38.287C436.073 38.769 436.241 39.409 435.836 40.066C435.261 40.998 434.384 41.466 433.307 41.556C431.61 41.697 430.419 40.906 429.713 39.427ZM476.753 39.119C476.889 37.995 476.998 36.868 477.137 35.744C477.193 35.292 476.955 35.17 476.576 35.159C475.384 35.126 474.192 35.084 473 35.062C471.656 35.038 470.348 35.254 469.104 35.765C467.724 36.333 466.673 37.243 466.244 38.745C465.93 39.8526 465.831 41.01 465.951 42.155C466.118 43.9255 466.519 45.666 467.144 47.331C467.978 49.552 468.851 51.772 469.894 53.9C471.307 56.781 472.906 59.57 474.407 62.407C474.808 63.164 475.145 63.954 475.563 64.838C476.406 63.0806 476.866 61.1644 476.914 59.216C476.955 57.606 476.826 55.989 476.732 54.378C476.673 53.392 476.534 52.412 476.438 51.428C476.304 50.057 476.101 48.687 476.07 47.313C476.039 45.916 476.138 44.511 476.258 43.116C476.371 41.778 476.592 40.451 476.753 39.119V39.119ZM474.064 38.037C473.621 39.26 472.674 39.95 471.446 40.153C470.301 40.341 469.298 39.918 468.552 39.005C468.021 38.355 468.224 37.585 469.02 37.146C469.934 36.64 470.939 36.512 472.124 36.435C472.446 36.494 472.931 36.543 473.392 36.675C474.061 36.864 474.308 37.367 474.064 38.037ZM438.642 75.697C437.987 75.162 437.121 75.131 436.498 75.718C435.725 76.448 435.045 77.283 434.365 78.106C433.58 79.057 432.844 80.046 431.831 80.783C430.357 81.854 428.639 82.298 426.912 82.718C425.539 83.052 424.16 83.362 422.783 83.683L422.766 83.861C423.175 84.05 423.571 84.286 423.997 84.421C426.097 85.086 428.233 85.417 430.452 85.229C432.054 85.093 433.58 84.744 435.026 84.058C437.016 83.115 438.547 81.621 439.849 79.883C440.067 79.593 440.166 79.164 440.192 78.79C440.281 77.469 439.61 76.487 438.642 75.697V75.697ZM490.393 76.223C488.703 76.404 487.011 76.596 485.316 76.693C484.498 76.74 483.668 76.584 482.842 76.517C481.457 76.405 480.105 76.097 478.934 75.357C478.256 74.93 477.693 74.882 476.973 75.124C475.945 75.47 475.106 75.996 474.858 77.11C474.689 77.863 474.628 78.643 474.56 79.414C474.547 79.55 474.717 79.8 474.847 79.834C475.64 80.043 476.437 80.29 477.248 80.363C478.244 80.453 479.258 80.424 480.261 80.374C481.344 80.32 482.434 80.25 483.501 80.07C486.016 79.648 488.449 78.96 490.61 77.534C491.389 77.019 492.161 76.493 492.935 75.972L492.871 75.862C492.045 75.985 491.223 76.135 490.393 76.223V76.223Z" fill="white"/>
<path d="M187.445 42.3397V71.3726C187.445 81.3735 186.713 86.1718 184.518 90.3188C182.484 94.3066 179.801 96.8256 174.271 99.5915L162.642 94.0615C168.172 91.4585 170.853 89.1828 172.562 85.6851C174.351 82.107 174.924 77.96 174.924 67.061V42.3397H187.445ZM174.922 23.0662H187.445V35.9152H174.922V23.0662ZM195.011 45.1861C200.539 42.5848 205.826 41.447 211.601 41.447C218.024 41.447 222.253 43.1538 224.125 46.4886C225.18 48.3581 225.506 50.7984 225.506 56.0028V81.4558C219.895 82.2698 212.821 82.8387 207.615 82.8387C197.126 82.8387 192.408 79.1783 192.408 71.047C192.408 62.2627 198.67 58.198 214.04 56.8955V54.1314C214.04 51.854 212.902 51.0417 209.73 51.0417C205.096 51.0417 199.89 52.3424 195.009 54.865V45.1861H195.011ZM214.609 65.1109C206.314 65.9232 203.631 67.2256 203.631 70.4781C203.631 72.9166 205.177 74.0562 208.592 74.0562C210.461 74.0562 212.17 73.8952 214.609 73.4873V65.1109ZM231.608 44.2916C239.008 42.3415 245.107 41.447 251.288 41.447C257.712 41.447 262.348 42.9087 265.114 45.7568C267.717 48.4404 268.529 51.3656 268.529 57.6291V82.1875H256.006V58.1193C256.006 53.321 254.378 51.5319 249.905 51.5319C248.198 51.5319 246.654 51.693 244.132 52.4265V82.1893H231.608V44.2916ZM273.395 89.0182C277.787 91.2956 282.178 92.353 286.813 92.353C295.025 92.353 298.523 89.0182 298.523 81.0479V80.8046C296.084 82.0247 293.644 82.5131 290.391 82.5131C279.412 82.5131 272.418 75.2746 272.418 63.8085C272.418 49.5765 282.747 41.5257 301.043 41.5257C306.411 41.5257 311.372 42.0946 317.39 43.3148L313.102 52.3495C309.767 51.6983 312.833 52.2601 310.314 52.0168V53.3192L310.475 58.6041L310.558 65.4347C310.64 67.1433 310.64 68.8519 310.721 70.5586V73.9757C310.721 84.7101 309.826 89.7499 307.142 93.8969C303.239 99.9976 296.49 103.007 286.894 103.007C282.013 103.007 277.787 102.273 273.394 100.567V89.0164L273.395 89.0182ZM298.281 51.6089H296.979C294.54 51.5284 291.694 52.1778 289.74 53.3979C286.733 55.1065 285.187 58.1962 285.187 62.5884C285.187 68.8501 288.277 72.4282 293.807 72.4282C295.515 72.4282 296.898 72.1026 298.523 71.616V67.3043C298.523 65.8427 298.442 64.2146 298.442 62.5078L298.362 56.7345L298.279 52.5857V51.6107L298.281 51.6089ZM336.832 41.2842C349.355 41.2842 357 49.1722 357 61.9389C357 75.0331 349.032 83.2467 336.343 83.2467C323.82 83.2467 316.095 75.3569 316.095 62.6724C316.095 49.496 324.065 41.2824 336.832 41.2824V41.2842ZM336.587 73.1617C341.385 73.1617 344.233 69.1757 344.233 62.2645C344.233 55.4339 341.467 51.3673 336.671 51.3673C331.708 51.3673 328.862 55.3534 328.862 62.2627C328.862 69.1775 331.708 73.1617 336.587 73.1617Z" fill="white"/>
<path d="M154.999 23H167.522V80.971C161.099 82.1911 156.382 82.6795 151.26 82.6795C135.97 82.6795 128 75.7666 128 62.5097C128 49.7429 136.459 41.4488 149.551 41.4488C151.583 41.4488 153.129 41.6098 154.999 42.0982V23ZM154.999 52.1796C153.535 51.693 152.315 51.5302 150.771 51.5302C144.427 51.5302 140.769 55.4339 140.769 62.2646C140.769 68.9324 144.264 72.5928 150.689 72.5928C152.072 72.5928 153.211 72.5105 155.001 72.2672L154.999 52.1796Z" fill="white"/>
<defs>
<linearGradient id="paint0_linear_0_1" x1="-2.47542" y1="3.94343" x2="54.4784" y2="52.5133" gradientUnits="userSpaceOnUse">
<stop stop-color="white"/>
<stop offset="1" stop-color="white"/>
</linearGradient>
<linearGradient id="paint1_linear_0_1" x1="75.9067" y1="82.705" x2="55.4822" y2="54.0628" gradientUnits="userSpaceOnUse">
<stop stop-color="white"/>
<stop offset="1" stop-color="white"/>
</linearGradient>
</defs>
</svg>
