<svg xmlns="http://www.w3.org/2000/svg" xmlns:xlink="http://www.w3.org/1999/xlink" width="500" zoomAndPan="magnify" viewBox="0 0 375 374.999991" height="500" preserveAspectRatio="xMidYMid meet" version="1.0"><path fill="#ffffff" d="M 295.347656 315.984375 C 295.347656 316.40625 295.308594 316.828125 295.226562 317.242188 C 295.144531 317.65625 295.019531 318.058594 294.859375 318.449219 C 294.695312 318.839844 294.5 319.210938 294.261719 319.566406 C 294.027344 319.917969 293.761719 320.242188 293.460938 320.539062 C 293.164062 320.839844 292.835938 321.105469 292.484375 321.34375 C 292.132812 321.578125 291.761719 321.777344 291.371094 321.9375 C 290.980469 322.097656 290.578125 322.222656 290.164062 322.304688 C 289.746094 322.386719 289.328125 322.429688 288.90625 322.429688 C 288.484375 322.429688 288.0625 322.386719 287.648438 322.304688 C 287.234375 322.222656 286.832031 322.097656 286.441406 321.9375 C 286.050781 321.777344 285.675781 321.578125 285.324219 321.34375 C 284.972656 321.105469 284.648438 320.839844 284.347656 320.539062 C 284.050781 320.242188 283.78125 319.917969 283.546875 319.566406 C 283.3125 319.210938 283.113281 318.839844 282.953125 318.449219 C 282.789062 318.058594 282.667969 317.65625 282.585938 317.242188 C 282.503906 316.828125 282.460938 316.40625 282.460938 315.984375 C 282.460938 315.5625 282.503906 315.144531 282.585938 314.726562 C 282.667969 314.3125 282.789062 313.910156 282.953125 313.519531 C 283.113281 313.128906 283.3125 312.757812 283.546875 312.40625 C 283.78125 312.054688 284.050781 311.726562 284.347656 311.429688 C 284.648438 311.128906 284.972656 310.863281 285.324219 310.628906 C 285.675781 310.390625 286.050781 310.195312 286.441406 310.03125 C 286.832031 309.871094 287.234375 309.746094 287.648438 309.664062 C 288.0625 309.582031 288.484375 309.542969 288.90625 309.542969 C 289.328125 309.542969 289.746094 309.582031 290.164062 309.664062 C 290.578125 309.746094 290.980469 309.871094 291.371094 310.03125 C 291.761719 310.195312 292.132812 310.390625 292.484375 310.628906 C 292.835938 310.863281 293.164062 311.128906 293.460938 311.429688 C 293.761719 311.726562 294.027344 312.054688 294.261719 312.40625 C 294.5 312.757812 294.695312 313.128906 294.859375 313.519531 C 295.019531 313.910156 295.144531 314.3125 295.226562 314.726562 C 295.308594 315.144531 295.347656 315.5625 295.347656 315.984375 Z M 295.347656 315.984375 " fill-opacity="1" fill-rule="nonzero"/><path fill="#ffffff" d="M 351.898438 199.238281 C 351.898438 290.632812 277.808594 364.726562 186.414062 364.726562 C 95.015625 364.726562 20.925781 290.632812 20.925781 199.238281 C 20.925781 107.84375 95.015625 33.75 186.414062 33.75 C 277.796875 33.78125 351.871094 107.855469 351.898438 199.238281 Z M 351.898438 199.238281 " fill-opacity="1" fill-rule="nonzero"/><path fill="#82eda6" d="M 262.898438 227.554688 C 261.089844 333.390625 103.660156 333.375 101.867188 227.550781 C 103.671875 121.714844 261.105469 121.734375 262.898438 227.554688 Z M 262.898438 227.554688 " fill-opacity="1" fill-rule="nonzero"/><path fill="#2f2e41" d="M 179.1875 260.40625 L 179.101562 257.394531 C 199.839844 260.164062 204.304688 234.464844 183.390625 244.074219 L 188.167969 209.183594 L 191.148438 209.59375 L 187.085938 239.269531 C 209.105469 235.992188 200.960938 263.414062 179.1875 260.40625 Z M 179.1875 260.40625 " fill-opacity="1" fill-rule="nonzero"/><path fill="#2f2e41" d="M 205.882812 212.148438 L 222.085938 212.148438 L 222.085938 215.15625 L 205.882812 215.15625 Z M 205.882812 212.148438 " fill-opacity="1" fill-rule="nonzero"/><path fill="#2f2e41" d="M 154.734375 212.148438 L 170.9375 212.148438 L 170.9375 215.15625 L 154.734375 215.15625 Z M 154.734375 212.148438 " fill-opacity="1" fill-rule="nonzero"/><path fill="#2f2e41" d="M 208.480469 340.128906 C 211.640625 318.808594 186.683594 323.023438 173.472656 322.8125 C 169.160156 322.824219 165.082031 324.78125 162.375 328.136719 C 159.667969 331.496094 158.617188 335.894531 159.511719 340.113281 C 149.289062 343.273438 139.824219 348.496094 131.695312 355.457031 C 165.941406 367.398438 203.152344 367.8125 237.652344 356.632812 C 229.242188 349.078125 219.289062 343.445312 208.480469 340.128906 Z M 208.480469 340.128906 " fill-opacity="1" fill-rule="nonzero"/><path fill="#2f2e41" d="M 144.511719 189.472656 C 159.433594 180.847656 177.53125 187.464844 192.941406 191.082031 C 222.1875 200.070312 263.195312 188.816406 266.75 153.980469 C 270.453125 121.582031 226.132812 103.523438 211.96875 135.769531 L 216.09375 135.230469 C 170.152344 66.957031 90.238281 69.546875 90.765625 163.410156 C 90.59375 166.3125 95.109375 166.300781 95.277344 163.410156 C 93.585938 108.097656 130.195312 70.285156 181.941406 105.832031 C 193.78125 114.472656 203.367188 125.917969 212.195312 137.507812 C 217.585938 143.546875 218.753906 117.539062 244.550781 124.351562 C 272.9375 135.347656 263.671875 175.996094 238.300781 184.917969 C 206.949219 200.9375 172.996094 169.882812 142.234375 185.574219 C 141.207031 186.222656 140.875 187.574219 141.492188 188.625 C 142.105469 189.675781 143.441406 190.050781 144.511719 189.472656 Z M 144.511719 189.472656 " fill-opacity="1" fill-rule="nonzero"/><path fill="#3f3d56" d="M 186.414062 369.222656 C 97.785156 369.148438 24.113281 300.945312 17.214844 212.585938 C 10.316406 124.230469 72.511719 45.417969 160.050781 31.589844 C 247.59375 17.761719 331.054688 73.5625 351.726562 159.746094 C 372.398438 245.925781 323.335938 333.519531 239.046875 360.910156 C 222.050781 366.4375 204.285156 369.242188 186.414062 369.222656 Z M 186.414062 38.25 C 121.292969 38.238281 62.578125 77.460938 37.652344 137.625 C 12.726562 197.785156 26.5 267.039062 72.546875 313.085938 C 118.59375 359.136719 187.847656 372.90625 248.011719 347.984375 C 308.171875 323.058594 347.394531 264.34375 347.386719 199.222656 C 347.285156 110.363281 275.273438 38.351562 186.414062 38.25 Z M 186.414062 38.25 " fill-opacity="1" fill-rule="nonzero"/></svg>