<svg width="229" height="80" viewBox="0 0 229 80" fill="none"
     xmlns="http://www.w3.org/2000/svg">
    <path d="M59.4452 19.3397V48.3726C59.4452 58.3735 58.7134 63.1718 56.5183 67.3188C54.4841 71.3066 51.8005 73.8256 46.2705 76.5915L34.6416 71.0615C40.1716 68.4585 42.8534 66.1828 44.562 62.6851C46.351 59.107 46.9235 54.96 46.9235 44.061V19.3397H59.4452ZM46.9217 0.0661621H59.4452V12.9152H46.9217V0.0661621ZM67.0111 22.1861C72.5393 19.5848 77.826 18.447 83.6011 18.447C90.0238 18.447 94.2532 20.1538 96.1245 23.4886C97.1801 25.3581 97.5057 27.7984 97.5057 33.0028V58.4558C91.8952 59.2698 84.8212 59.8387 79.6151 59.8387C69.1258 59.8387 64.408 56.1783 64.408 48.047C64.408 39.2627 70.6697 35.198 86.0396 33.8955V31.1314C86.0396 28.854 84.9017 28.0417 81.7297 28.0417C77.0961 28.0417 71.8899 29.3424 67.0093 31.865V22.1861H67.0111ZM86.6085 42.1109C78.3144 42.9232 75.6308 44.2256 75.6308 47.4781C75.6308 49.9166 77.1766 51.0562 80.5919 51.0562C82.4615 51.0562 84.17 50.8952 86.6085 50.4873V42.1109ZM103.608 21.2916C111.008 19.3415 117.107 18.447 123.288 18.447C129.712 18.447 134.348 19.9087 137.114 22.7568C139.717 25.4404 140.529 28.3656 140.529 34.6291V59.1875H128.006V35.1193C128.006 30.321 126.378 28.5319 121.905 28.5319C120.198 28.5319 118.654 28.693 116.132 29.4265V59.1893H103.608V21.2916ZM145.395 66.0182C149.787 68.2956 154.178 69.353 158.813 69.353C167.025 69.353 170.523 66.0182 170.523 58.0479V57.8046C168.084 59.0247 165.644 59.5131 162.391 59.5131C151.412 59.5131 144.418 52.2746 144.418 40.8085C144.418 26.5765 154.747 18.5257 173.043 18.5257C178.411 18.5257 183.372 19.0946 189.39 20.3148L185.102 29.3495C181.767 28.6983 184.833 29.2601 182.314 29.0168V30.3192L182.475 35.6041L182.558 42.4347C182.64 44.1433 182.64 45.8519 182.721 47.5586V50.9757C182.721 61.7101 181.826 66.7499 179.142 70.8969C175.239 76.9976 168.49 80.0069 158.894 80.0069C154.013 80.0069 149.787 79.2733 145.394 77.5666V66.0164L145.395 66.0182ZM170.281 28.6089H168.979C166.54 28.5284 163.694 29.1778 161.74 30.3979C158.733 32.1065 157.187 35.1962 157.187 39.5884C157.187 45.8501 160.277 49.4282 165.807 49.4282C167.515 49.4282 168.898 49.1026 170.523 48.616V44.3043C170.523 42.8427 170.442 41.2146 170.442 39.5078L170.362 33.7345L170.279 29.5857V28.6107L170.281 28.6089ZM208.832 18.2842C221.355 18.2842 229 26.1722 229 38.9389C229 52.0331 221.032 60.2467 208.343 60.2467C195.82 60.2467 188.095 52.3569 188.095 39.6724C188.095 26.496 196.065 18.2824 208.832 18.2824V18.2842ZM208.587 50.1617C213.385 50.1617 216.233 46.1757 216.233 39.2645C216.233 32.4339 213.467 28.3673 208.671 28.3673C203.708 28.3673 200.862 32.3534 200.862 39.2627C200.862 46.1775 203.708 50.1617 208.587 50.1617Z"
          fill="white"/>
    <path d="M26.9987 0H39.5222V57.971C33.0994 59.1911 28.3817 59.6795 23.2596 59.6795C7.97028 59.6795 0 52.7666 0 39.5097C0 26.7429 8.45869 18.4488 21.551 18.4488C23.5834 18.4488 25.1292 18.6098 26.9987 19.0982V0ZM26.9987 29.1796C25.5353 28.693 24.3151 28.5302 22.7712 28.5302C16.4272 28.5302 12.7685 32.4339 12.7685 39.2646C12.7685 45.9324 16.2644 49.5928 22.6889 49.5928C24.0718 49.5928 25.2115 49.5105 27.0005 49.2672L26.9987 29.1796Z"
          fill="white"/>
</svg>
