<svg width="119" height="122" viewBox="0 0 119 122" fill="none"
     xmlns="http://www.w3.org/2000/svg">
    <path fill-rule="evenodd" clip-rule="evenodd"
          d="M118.258 73.784C117.808 70.866 115.357 68.955 112.506 68.826C111.474 68.779 110.426 68.887 109.397 69.018C108.154 69.176 106.926 69.456 105.686 69.641C104.829 69.769 103.96 69.828 103.104 69.916L103.083 69.805C104.681 66.787 106.346 63.802 107.858 60.741C109.017 58.393 110.009 55.96 111.034 53.547C112.73 49.549 114.085 45.427 115.207 41.238C116.282 37.227 117.202 33.172 117.491 29.011C117.607 27.349 117.687 25.68 117.678 24.016C117.67 22.689 117.527 21.36 117.394 20.037C117.244 18.521 116.786 17.084 116.152 15.701C115.316 13.879 114.02 12.384 112.656 10.964C111.564 9.827 110.363 8.791 109.172 7.756C107.474 6.279 105.565 5.1 103.582 4.053C101.336 2.85933 98.9557 1.93622 96.492 1.303C94.999 0.922 93.472 0.639 91.96 0.337C91.416 0.227 90.871 0 90.327 0H80.086C79.716 0 79.349 0.191 78.976 0.233C76.524 0.506 74.101 0.968 71.748 1.697C70.868 1.97 70.064 1.798 69.228 1.721C68.587 1.662 67.957 1.49 67.316 1.458C64.874 1.336 62.429 1.157 59.988 1.183C57.649 1.207 55.334 1.592 53.07 2.235C51.175 2.773 49.321 3.43 47.623 4.426C46.896 4.852 46.32 4.772 45.568 4.555C43.041 3.826 40.496 3.141 37.929 2.566C36.329 2.208 34.684 2.03 33.05 1.859C31.4821 1.69605 29.908 1.59796 28.332 1.565C26.794 1.532 25.245 1.533 23.714 1.669C21.2754 1.881 18.8718 2.38907 16.556 3.182C13.9913 4.05772 11.5949 5.36483 9.47 7.047C7.303 8.762 5.565 10.856 4.167 13.247C2.694 15.77 1.684 18.471 1.056 21.308C0.716 22.845 0.501 24.425 0.268 25.986C0.195 26.472 1 26.958 0 27.442V34.236C1 34.688 0.208 35.139 0.266 35.592C0.405 36.681 0.528 37.779 0.712 38.86C1.003 40.571 1.348 42.277 1.7 43.977C2.18877 46.353 2.70413 48.7235 3.246 51.088C3.642 52.808 4.093 54.518 4.565 56.219C5.286 58.817 5.996 61.42 6.811 63.989C7.568 66.376 8.435 68.729 9.295 71.082C10.486 74.337 11.912 77.487 13.622 80.506C15.101 83.12 16.791 85.568 19.058 87.582C20.552 88.909 22.215 89.929 24.151 90.439C25.672 90.839 27.218 90.887 28.775 90.568C30.5489 90.2071 32.2061 89.4133 33.599 88.257C33.762 88.123 33.941 88.021 34.134 88.267C34.869 89.198 35.853 89.819 36.882 90.356C39.659 91.804 42.685 92.238 45.759 92.415C46.503 92.458 47.255 92.351 48.005 92.33C49.466 92.29 50.886 92.005 52.283 91.601C53.015 91.389 53.73 91.12 54.475 90.869C54.514 91.662 54.564 92.426 54.587 93.19L54.691 97.356C54.71 97.99 54.735 98.626 54.794 99.257C54.945 100.884 55.093 102.512 55.287 104.134C55.422 105.252 55.562 106.379 55.825 107.47C56.3523 109.672 57.0744 111.824 57.983 113.898C58.8528 115.912 60.1897 117.689 61.883 119.083C64.103 120.919 66.705 121.702 69.515 121.847C70.677 121.908 71.872 121.851 73.016 121.643C74.8343 121.32 76.6328 120.894 78.403 120.368C81.994 119.284 85.098 117.412 87.417 114.387C88.737 112.663 89.821 110.798 90.517 108.739C91.091 107.038 91.632 105.32 92.062 103.579C92.402 102.207 92.57 100.792 92.777 99.391C92.914 98.464 92.996 97.528 93.082 96.594C93.222 95.077 93.365 93.561 93.466 92.041C93.536 90.983 93.533 89.92 93.575 88.86C93.588 88.537 93.64 88.216 93.67 87.894C93.698 87.596 93.848 87.493 94.152 87.498C95.223 87.514 96.296 87.542 97.364 87.494C98.561 87.44 99.769 87.389 100.947 87.191C102.626 86.9106 104.291 86.5546 105.937 86.124C107.88 85.616 109.662 84.706 111.377 83.669C113.375 82.462 115.196 81.046 116.674 79.222C117.959 77.631 118.568 75.792 118.258 73.784V73.784ZM114.846 74.766C114.78 75.681 114.361 76.465 113.753 77.135C110.884 80.298 107.285 82.217 103.168 83.162C101.604 83.52 99.99 83.706 98.389 83.854C97.0212 83.9743 95.647 84.0067 94.275 83.951C93.269 83.913 92.271 83.683 91.243 83.535C91.14 84.475 91.042 85.454 90.923 86.431L90.444 90.176C90.299 91.363 90.186 92.554 90.037 93.74C89.891 94.891 89.709 96.038 89.556 97.189C89.413 98.261 89.308 99.338 89.149 100.408C88.904 102.048 88.67 103.692 88.35 105.319C87.966 107.264 87.377 109.148 86.416 110.902C85.244 113.043 83.582 114.674 81.467 115.882C79.287 117.128 76.904 117.776 74.488 118.318C72.778 118.702 71.016 118.765 69.284 118.609C66.28 118.337 63.716 117.052 61.778 114.723C59.928 112.5 58.676 109.952 58.228 107.068C58.0189 105.695 57.8551 104.316 57.737 102.932C57.6044 101.394 57.5047 99.854 57.438 98.312C57.3494 96.3558 57.2837 94.3987 57.241 92.441C57.188 90.035 57.171 87.629 57.137 85.223L57.131 85.131C55.907 85.865 54.704 86.669 53.428 87.331C51.9368 88.1024 50.3045 88.5627 48.63 88.684C47.312 88.784 45.977 88.875 44.665 88.77C42.514 88.597 40.365 88.26 38.439 87.201C37.658 86.771 36.843 86.248 36.305 85.561C35.015 83.915 35.633 81.835 37.578 80.834C38.922 80.141 40.389 79.852 41.846 79.515C43.1141 79.2273 44.369 78.8839 45.607 78.486C46.829 78.086 47.6 77.095 48.361 76.123L49.567 74.572C49.064 74.519 48.59 74.465 48.116 74.421C46.677 74.285 45.304 73.889 43.991 73.307C42.867 72.81 42.85 72.756 42.026 73.65C40.65 75.144 39.312 76.673 37.964 78.192C36.972 79.309 35.986 80.433 34.999 81.553C34.021 82.661 33.105 83.832 32.052 84.863C30.488 86.394 28.603 87.315 26.354 87.211C24.911 87.145 23.59 86.639 22.402 85.812C19.95 84.104 18.298 81.715 16.794 79.206C14.867 75.991 13.388 72.566 12.122 69.047C11.246 66.615 10.366 64.181 9.601 61.714C8.77 59.033 8.041 56.318 7.324 53.604C6.78843 51.5535 6.29432 49.4924 5.842 47.422C5.31457 45.0707 4.8265 42.7107 4.378 40.343C4.08 38.744 3.907 37.122 3.666 35.512C3.341 33.342 3.281 31.152 3.399 28.973C3.504 27.01 3.786 25.052 4.066 23.102C4.454 20.404 5.343 17.858 6.622 15.454C7.405 13.981 8.377 12.642 9.501 11.398C11.346 9.356 13.579 7.88 16.063 6.772C17.799 5.998 19.633 5.532 21.502 5.168C24.276 4.628 27.075 4.649 29.875 4.707C31.099 4.732 32.318 4.955 33.541 5.076C36.174 5.338 38.755 5.892 41.303 6.576C43.16 7.074 44.979 7.719 46.821 8.279C47.006 8.335 47.277 8.33 47.428 8.231C49.924 6.602 52.652 5.527 55.553 4.912C56.654 4.679 57.79 4.577 58.916 4.505C60.285 4.418 61.665 4.338 63.031 4.417C64.673 4.511 66.307 4.753 67.939 4.977C68.731 5.085 69.504 5.36 70.298 5.435C70.678 5.471 71.081 5.193 71.483 5.1C73.532 4.627 75.572 4.1 77.639 3.726C79.178 3.448 80.75 3.317 82.315 3.227C84.06 3.127 85.818 3.054 87.562 3.138C89.7704 3.24736 91.9643 3.55629 94.117 4.061C96.794 4.684 99.362 5.589 101.803 6.845C103.627 7.783 105.361 8.871 106.922 10.209C107.945 11.087 108.992 11.954 109.916 12.932C111.056 14.138 112.219 15.345 112.934 16.89C113.472 18.055 113.856 19.261 113.962 20.537C114.094 22.123 114.254 23.715 114.239 25.303C114.225 26.822 114.018 28.34 113.871 29.855C113.537 33.309 112.786 36.688 111.874 40.022C111.111 42.776 110.248 45.5012 109.285 48.192C108.406 50.673 107.392 53.109 106.367 55.535C105.612 57.332 104.793 59.1008 103.909 60.838C102.232 64.124 100.488 67.376 98.471 70.471C98.123 71.006 97.793 71.554 97.453 72.1C98.333 72.694 99.33 72.903 100.334 73.011C101.289 73.115 102.263 73.177 103.217 73.106C104.744 72.993 106.266 72.775 107.784 72.562C109.288 72.352 110.762 71.924 112.306 72.037C113.848 72.149 114.951 73.321 114.846 74.766V74.766ZM92.833 71.413C92.178 70.567 91.51 69.731 90.869 68.875C89.863 67.531 89.14 66.03 88.414 64.522C87.726 63.093 86.882 61.74 86.157 60.327C84.892 57.862 83.604 55.405 82.439 52.892C80.974 49.735 79.819 46.466 79.455 42.969C79.301 41.489 79.262 40.011 79.561 38.545C80.04 36.204 81.263 34.373 83.319 33.117C85.226 31.952 87.351 31.576 89.528 31.458C90.879 31.385 92.236 31.445 93.638 31.445L93.591 31.208C92.719 29.385 91.904 27.531 90.95 25.751C89.604 23.239 87.882 20.974 85.964 18.874C84.543 17.319 83.004 15.876 81.318 14.601C79.66 13.346 77.913 12.225 76.049 11.308C73.826 10.215 71.511 9.37 69.082 8.831C66.748 8.313 64.399 7.996 62.005 7.97C59.963 7.948 57.934 8.04 55.945 8.501C52.943 9.196 50.197 10.432 47.808 12.434C46.4863 13.5425 45.3051 14.8086 44.291 16.204C43.095 17.847 42.13 19.621 41.305 21.481C40.173 24.033 39.396 26.689 38.865 29.419C38.599 30.78 38.391 32.153 38.179 33.525C38.105 34.005 38.099 34.496 38.056 35.046C38.425 34.854 38.691 34.706 38.963 34.574L39.848 34.177C42.841 32.808 45.942 31.927 49.275 32.028C50.691 32.071 52.046 32.351 53.305 32.971C55.72 34.162 57.133 36.187 57.747 38.75C58.171 40.519 58.461 42.323 58.743 44.122C58.964 45.527 59.19 46.947 59.216 48.364C59.253 50.435 59.148 52.51 59.035 54.58C58.938 56.3402 58.5738 58.0753 57.955 59.726C56.835 62.719 55.587 65.663 54.421 68.639C54.036 69.622 53.74 70.64 53.376 71.721C53.938 71.721 54.394 71.717 54.85 71.723C55.028 71.726 55.21 71.731 55.382 71.772C56.722 72.088 57.884 72.695 58.837 73.726C60.108 75.098 60.775 76.699 60.809 78.552C60.828 79.579 60.72 80.609 60.725 81.636C60.746 86.422 60.782 91.208 60.822 95.993C60.829 96.775 60.868 97.558 60.924 98.339C61.041 99.974 61.159 101.61 61.319 103.241C61.431 104.398 61.587 105.553 61.77 106.702C62.029 108.33 62.77 109.779 63.611 111.164C64.335 112.355 65.276 113.367 66.516 114.065C68.623 115.251 70.892 115.35 73.179 114.913C74.724 114.618 76.241 114.144 77.741 113.655C79.2161 113.182 80.563 112.376 81.678 111.301C82.729 110.282 83.475 109.04 83.978 107.669C84.954 105.01 85.258 102.21 85.662 99.432C85.813 98.392 85.944 97.349 86.082 96.307C86.239 95.121 86.398 93.936 86.55 92.751C86.662 91.868 86.764 90.983 86.872 90.1C87.026 88.832 87.189 87.565 87.336 86.296C87.449 85.315 87.545 84.33 87.645 83.347C87.774 82.091 87.913 80.835 88.024 79.577C88.11 78.622 88.075 77.65 88.244 76.713C88.555 74.995 89.367 73.533 90.89 72.588C91.527 72.193 92.246 71.933 92.953 71.599L92.833 71.413V71.413ZM35.236 64.361C34.4765 62.5749 34.0189 60.675 33.882 58.739C33.754 56.914 33.971 55.096 34.158 53.279C34.34 51.519 34.491 49.751 34.544 47.983C34.632 45.077 34.436 42.175 34.297 39.271C34.213 37.542 34.414 35.792 34.568 34.059C34.707 32.498 34.88 30.933 35.175 29.395C35.67 26.814 36.327 24.27 37.261 21.804C38.148 19.466 39.167 17.189 40.606 15.139C41.592 13.733 42.711 12.419 43.786 11.045L43.467 10.932C39.969 9.821 36.414 8.953 32.758 8.574C31.029 8.395 29.294 8.29 27.56 8.187C27.028 8.155 26.488 8.227 25.954 8.278C24.632 8.404 23.294 8.454 21.993 8.702C19.779 9.123 17.655 9.831 15.688 10.984C13.922 12.019 12.439 13.357 11.197 14.962C9.825 16.734 8.902 18.738 8.239 20.875C7.456 23.396 7.083 25.99 6.982 28.608C6.894 30.903 6.85 33.211 7.246 35.497C7.541 37.199 7.738 38.919 8.063 40.614C8.506 42.925 8.981 45.231 9.53 47.518C10.315 50.792 11.099 54.071 12.029 57.305C12.919 60.404 13.923 63.475 15.011 66.509C15.901 68.985 16.93 71.415 18.014 73.813C18.72 75.375 19.575 76.878 20.471 78.341C21.424 79.894 22.508 81.368 23.979 82.495C25.835 83.918 27.272 84.139 29.158 82.578C29.966 81.909 30.649 81.083 31.352 80.296C32.469 79.046 33.547 77.762 34.659 76.508C36.075 74.91 37.509 73.329 38.932 71.739C39.233 71.403 39.522 71.057 39.815 70.717L39.331 70.292C37.5736 68.6169 36.1797 66.598 35.236 64.361V64.361ZM88.924 16.792C90.0875 18.1447 91.1915 19.5473 92.233 20.996C94.233 23.805 95.831 26.838 97.008 30.083C97.529 31.513 97.945 32.957 97.759 34.522C97.63 35.618 97.641 36.73 97.544 37.832C97.463 38.749 97.318 39.661 97.199 40.575C97.021 41.953 96.763 43.327 96.686 44.711C96.613 46.028 96.689 47.359 96.772 48.679C96.856 50.02 97.037 51.355 97.16 52.694C97.299 54.212 97.486 55.73 97.529 57.251C97.564 58.5 97.453 59.757 97.344 61.004C97.214 62.506 96.833 63.96 96.265 65.355C95.866 66.337 95.389 67.289 94.938 68.272L95.119 68.464L95.394 68.677L95.671 68.181C98.0102 64.4996 100.089 60.6593 101.893 56.688C103.047 54.1245 104.143 51.5351 105.18 48.922C106.804 44.858 108.089 40.68 109.083 36.419C109.529 34.506 109.87 32.564 110.173 30.622C110.409 29.104 110.606 27.568 110.65 26.036C110.697 24.411 110.607 22.773 110.457 21.152C110.345 19.928 110.043 18.696 109.276 17.701C108.043 16.099 106.712 14.567 105.075 13.355C103.697 12.334 102.324 11.287 100.845 10.428C98.5 9.068 95.962 8.162 93.31 7.545C90.722 6.942 88.1 6.682 85.461 6.627C83.905 6.594 82.342 6.761 80.789 6.907C79.382 7.039 77.984 7.264 76.567 7.45C78.087 8.305 79.586 9.065 81 9.961C83.973 11.844 86.637 14.11 88.924 16.792V16.792ZM50.299 69.514C51.26 66.441 52.569 63.507 53.837 60.555C54.865 58.161 55.427 55.639 55.614 53.049C55.707 51.772 55.681 50.479 55.618 49.198C55.5555 47.7729 55.4247 46.3516 55.226 44.939C54.96 43.138 54.657 41.336 54.231 39.568C53.769 37.655 52.604 36.323 50.608 35.832C49.392 35.533 48.184 35.545 46.955 35.739C43.953 36.212 41.205 37.318 38.645 38.938C38.13 39.264 37.847 39.527 37.936 40.266C38.124 41.831 38.165 43.421 38.158 45.001C38.148 47.237 38.053 49.473 37.968 51.708C37.94 52.436 37.835 53.16 37.757 53.885C37.637 54.995 37.406 56.104 37.413 57.212C37.42 58.354 37.537 59.523 37.814 60.629C38.694 64.136 40.558 67.006 43.613 69.031C45.492 70.276 47.571 70.904 49.853 71.023C50.008 70.499 50.146 70.004 50.299 69.514ZM46.713 39.427C46.311 38.583 46.541 37.884 47.473 37.56C47.7 37.48 47.934 37.395 48.17 37.372C48.494 37.34 48.824 37.364 49.152 37.364C50.334 37.37 51.471 37.535 52.447 38.287C53.073 38.769 53.241 39.409 52.836 40.066C52.261 40.998 51.384 41.466 50.307 41.556C48.61 41.697 47.419 40.906 46.713 39.427ZM93.753 39.119C93.889 37.995 93.998 36.868 94.137 35.744C94.193 35.292 93.955 35.17 93.576 35.159C92.384 35.126 91.192 35.084 90 35.062C88.656 35.038 87.348 35.254 86.104 35.765C84.724 36.333 83.673 37.243 83.244 38.745C82.9301 39.8526 82.8307 41.01 82.951 42.155C83.1181 43.9255 83.5192 45.666 84.144 47.331C84.978 49.552 85.851 51.772 86.894 53.9C88.307 56.781 89.906 59.57 91.407 62.407C91.808 63.164 92.145 63.954 92.563 64.838C93.4058 63.0806 93.8662 61.1644 93.914 59.216C93.955 57.606 93.826 55.989 93.732 54.378C93.673 53.392 93.534 52.412 93.438 51.428C93.304 50.057 93.101 48.687 93.07 47.313C93.039 45.916 93.138 44.511 93.258 43.116C93.371 41.778 93.592 40.451 93.753 39.119V39.119ZM91.064 38.037C90.621 39.26 89.674 39.95 88.446 40.153C87.301 40.341 86.298 39.918 85.552 39.005C85.021 38.355 85.224 37.585 86.02 37.146C86.934 36.64 87.939 36.512 89.124 36.435C89.446 36.494 89.931 36.543 90.392 36.675C91.061 36.864 91.308 37.367 91.064 38.037ZM55.642 75.697C54.987 75.162 54.121 75.131 53.498 75.718C52.725 76.448 52.045 77.283 51.365 78.106C50.58 79.057 49.844 80.046 48.831 80.783C47.357 81.854 45.639 82.298 43.912 82.718C42.539 83.052 41.16 83.362 39.783 83.683L39.766 83.861C40.175 84.05 40.571 84.286 40.997 84.421C43.097 85.086 45.233 85.417 47.452 85.229C49.054 85.093 50.58 84.744 52.026 84.058C54.016 83.115 55.547 81.621 56.849 79.883C57.067 79.593 57.166 79.164 57.192 78.79C57.281 77.469 56.61 76.487 55.642 75.697V75.697ZM107.393 76.223C105.703 76.404 104.011 76.596 102.316 76.693C101.498 76.74 100.668 76.584 99.842 76.517C98.457 76.405 97.105 76.097 95.934 75.357C95.256 74.93 94.693 74.882 93.973 75.124C92.945 75.47 92.106 75.996 91.858 77.11C91.689 77.863 91.628 78.643 91.56 79.414C91.547 79.55 91.717 79.8 91.847 79.834C92.64 80.043 93.437 80.29 94.248 80.363C95.244 80.453 96.258 80.424 97.261 80.374C98.344 80.32 99.434 80.25 100.501 80.07C103.016 79.648 105.449 78.96 107.61 77.534C108.389 77.019 109.161 76.493 109.935 75.972L109.871 75.862C109.045 75.985 108.223 76.135 107.393 76.223V76.223Z"
          fill="white"/>
</svg>
