<svg width="103" height="104" viewBox="0 0 103 104" fill="none"
     xmlns="http://www.w3.org/2000/svg">
    <path d="M50.5787 0.000795344C46.3567 0.0207953 42.3267 0.379795 38.7787 1.0078C28.3287 2.8538 26.4327 6.7178 26.4327 13.8448V23.2558H51.1257V26.3928H17.1647C9.9887 26.3928 3.7047 30.7058 1.7387 38.9138C-0.529298 48.3188 -0.629298 54.1888 1.7387 64.0098C3.4937 71.3208 7.6857 76.5288 14.8627 76.5288H23.3537V65.2468C23.3537 57.0958 30.4047 49.9068 38.7797 49.9068H63.4447C70.3107 49.9068 75.7907 44.2528 75.7907 37.3588V13.8458C75.7907 7.1528 70.1447 2.1258 63.4447 1.0088C59.2007 0.302795 54.7997 -0.0182047 50.5787 0.000795344V0.000795344ZM37.2247 7.5698C39.7747 7.5698 41.8587 9.6868 41.8587 12.2908C41.8587 14.8838 39.7757 16.9808 37.2247 16.9808C34.6647 16.9808 32.5917 14.8838 32.5917 12.2908C32.5907 9.6868 34.6647 7.5698 37.2247 7.5698V7.5698Z"
          fill="url(#paint0_linear_0_1)"/>
    <path d="M78.8699 26.3926V37.3586C78.8699 45.8586 71.6619 53.0136 63.4439 53.0136H38.7789C32.0229 53.0136 26.4329 58.7966 26.4329 65.5626V89.0776C26.4329 95.7686 32.2509 99.7056 38.7789 101.625C46.5949 103.922 54.0909 104.338 63.4439 101.625C69.6599 99.8236 75.7899 96.2016 75.7899 89.0776V79.6656H51.1259V76.5276H88.1379C95.3139 76.5276 97.9899 71.5226 100.486 64.0086C103.064 56.2736 102.953 48.8346 100.486 38.9126C98.7119 31.7676 95.3249 26.3916 88.1379 26.3916H78.8699V26.3926ZM64.9969 85.9396C67.5579 85.9396 69.6309 88.0366 69.6309 90.6316C69.6309 93.2336 67.5569 95.3506 64.9969 95.3506C62.4469 95.3506 60.3639 93.2336 60.3639 90.6316C60.3639 88.0366 62.4469 85.9396 64.9969 85.9396V85.9396Z"
          fill="url(#paint1_linear_0_1)"/>
    <defs>
        <linearGradient id="paint0_linear_0_1" x1="-2.47542" y1="2.94343" x2="54.4784"
                        y2="51.5133" gradientUnits="userSpaceOnUse">
            <stop stop-color="white"/>
            <stop offset="1" stop-color="white"/>
        </linearGradient>
        <linearGradient id="paint1_linear_0_1" x1="75.9067" y1="81.705" x2="55.4822"
                        y2="53.0628" gradientUnits="userSpaceOnUse">
            <stop stop-color="white"/>
            <stop offset="1" stop-color="white"/>
        </linearGradient>
    </defs>
</svg>
