<svg width="128" height="128" viewBox="0 0 128 128" fill="none"
     xmlns="http://www.w3.org/2000/svg">
    <path d="M64.0039 25.6021C46.9369 25.6021 36.2739 34.1321 32.0039 51.1991C38.4019 42.6681 45.8709 39.4691 54.4019 41.6021C59.2729 42.8161 62.7539 46.3481 66.6089 50.2621C72.8829 56.6291 80.1449 64.0001 96.0039 64.0001C113.07 64.0001 123.734 55.469 128.004 38.3981C121.605 46.9341 114.137 50.1331 105.605 48.0001C100.735 46.7851 97.2579 43.2541 93.3979 39.3401C87.1279 32.9731 79.8679 25.6021 64.0039 25.6021V25.6021ZM32.0039 64.0001C14.9379 64.0001 4.27391 72.5311 0.00390625 89.6021C6.40191 81.0661 13.8699 77.8671 22.4019 80.0001C27.2729 81.2151 30.7539 84.7461 34.6089 88.6601C40.8829 95.0271 48.1449 102.398 64.0039 102.398C81.0699 102.398 91.7339 93.8681 96.0039 76.8011C89.6049 85.3321 82.1369 88.5311 73.6049 86.3981C68.7349 85.1841 65.2579 81.6521 61.3979 77.7381C55.1279 71.3711 47.8679 64.0001 32.0039 64.0001Z"
          fill="white"/>
</svg>
